<?xml version="1.0" standalone="no"?>
<!DOCTYPE svg PUBLIC "-//W3C//DTD SVG 20010904//EN"
 "http://www.w3.org/TR/2001/REC-SVG-20010904/DTD/svg10.dtd">
<svg version="1.0" xmlns="http://www.w3.org/2000/svg"
 width="1440.000000pt" height="1440.000000pt" viewBox="0 0 1440.000000 1440.000000"
 preserveAspectRatio="xMidYMid meet">
<metadata>
Created by potrace 1.14, written by Peter Selinger 2001-2017
</metadata>
<g transform="translate(0.000000,1440.000000) scale(0.100000,-0.100000)"
fill="#000000" stroke="none">
<path d="M9611 14167 c2 -1 13 -9 24 -17 19 -14 19 -14 6 3 -7 9 -18 17 -24
17 -6 0 -8 -1 -6 -3z"/>
<path d="M9317 14139 c7 -7 15 -10 18 -7 3 3 -2 9 -12 12 -14 6 -15 5 -6 -5z"/>
<path d="M9355 14141 c-3 -5 -2 -12 3 -15 5 -3 9 1 9 9 0 17 -3 19 -12 6z"/>
<path d="M9537 14144 c-10 -11 5 -34 22 -34 14 1 14 2 -2 11 -9 6 -15 14 -12
20 7 10 2 12 -8 3z"/>
<path d="M9294 14121 c0 -11 5 -17 13 -14 10 4 11 9 2 19 -15 18 -15 18 -15
-5z"/>
<path d="M9393 14114 c9 -11 17 -27 17 -35 0 -8 -6 -5 -15 8 -9 13 -22 20 -30
17 -22 -9 -18 -23 5 -19 11 2 20 0 20 -4 0 -14 -48 -9 -54 5 -6 15 -36 8 -36
-8 0 -6 6 -5 15 2 12 10 15 10 15 -3 0 -9 -7 -14 -17 -13 -10 2 -20 -1 -24 -5
-3 -5 -18 -10 -35 -12 -16 -2 -36 -7 -43 -11 -7 -5 -17 -4 -23 2 -7 7 -4 14
10 21 10 6 22 7 26 3 4 -3 4 2 0 12 -5 14 -9 15 -16 4 -7 -10 -11 -9 -23 6
-13 17 -15 18 -15 3 0 -9 5 -17 11 -17 5 0 7 -5 4 -10 -5 -8 -11 -7 -21 1 -7
6 -11 16 -7 22 3 6 1 7 -5 3 -12 -7 -5 -36 8 -36 4 0 11 -7 14 -16 5 -14 4
-15 -9 -4 -8 7 -15 9 -15 4 -1 -5 -7 2 -14 16 -8 14 -12 28 -10 32 2 3 0 9 -5
13 -6 3 -8 -5 -5 -20 4 -24 3 -25 -18 -15 -21 10 -21 10 -6 -3 10 -8 15 -17
11 -20 -3 -4 -12 -2 -20 4 -18 16 -16 3 3 -20 10 -11 24 -17 33 -14 11 4 9 1
-4 -10 -11 -8 -24 -12 -30 -9 -19 12 -37 10 -31 -3 7 -20 -30 -50 -46 -37 -9
7 -17 6 -25 -3 -15 -16 -7 -25 15 -19 13 4 12 2 -2 -6 -14 -10 -20 -10 -26 0
-4 6 -10 11 -14 11 -17 -3 -26 0 -25 7 4 21 -3 32 -18 32 -15 0 -14 -2 3 -16
19 -15 19 -16 -1 -9 -11 3 -16 3 -12 -1 10 -10 -13 -35 -26 -27 -6 3 -7 1 -3
-5 3 -6 -2 -16 -11 -22 -13 -8 -14 -13 -5 -16 6 -3 10 -10 6 -15 -3 -5 -14 -5
-25 2 -12 6 -23 8 -26 6 -2 -3 5 -8 16 -12 12 -3 21 -11 21 -16 0 -12 -14 -11
-27 2 -9 9 -11 7 -9 -7 2 -12 10 -18 22 -16 15 3 16 2 5 -12 -11 -13 -17 -14
-30 -4 -14 11 -14 11 -3 -4 8 -10 9 -19 3 -22 -5 -3 -11 -3 -14 1 -2 5 -2 1 1
-7 8 -29 7 -45 -5 -45 -6 0 -15 -4 -20 -9 -5 -5 -3 -6 5 -2 6 4 12 3 12 -2 0
-12 29 -24 41 -16 5 3 4 14 -2 26 -8 15 -8 23 2 32 9 8 11 7 6 -6 -4 -10 -2
-18 4 -18 6 0 8 -4 4 -9 -3 -6 2 -14 11 -19 13 -7 14 -13 5 -31 -7 -11 -15
-21 -20 -21 -16 0 -7 -30 11 -36 24 -7 23 -21 -2 -29 -23 -7 -22 -26 3 -41 18
-10 18 -12 2 -27 -12 -13 -21 -14 -35 -7 -13 7 -21 7 -26 -2 -4 -7 -3 -8 4 -4
20 12 13 -13 -8 -34 -11 -11 -16 -20 -10 -20 5 0 15 9 22 19 11 17 14 18 35 4
14 -10 23 -11 23 -4 0 6 -6 11 -14 11 -8 0 -18 4 -21 10 -4 6 2 7 17 1 33 -12
34 -81 1 -81 -8 0 -11 -5 -8 -10 4 -7 12 -7 25 0 10 5 22 10 27 10 4 -1 -3 -7
-17 -14 -14 -8 -28 -12 -32 -10 -4 2 -6 -5 -5 -16 1 -22 13 -27 20 -7 4 9 6 9
6 -1 1 -7 -6 -15 -14 -18 -8 -4 -12 -10 -9 -15 3 -5 10 -7 15 -4 5 4 17 1 26
-5 15 -9 14 -10 -7 -4 l-24 7 19 -29 c14 -22 14 -26 3 -16 -11 9 -18 10 -23 2
-11 -17 -22 -2 -19 25 2 20 -1 24 -10 16 -7 -6 -16 -7 -21 -3 -4 4 -1 -3 6
-16 12 -21 12 -25 -5 -38 -11 -8 -15 -14 -9 -14 7 0 14 4 18 9 3 5 17 8 32 7
19 -2 27 -9 28 -25 1 -12 -2 -24 -6 -26 -4 -3 -6 -16 -5 -29 2 -15 -1 -23 -9
-20 -6 3 -12 -2 -12 -11 0 -11 6 -13 20 -9 13 4 17 2 13 -5 -4 -6 -14 -11 -22
-11 -8 0 -14 -5 -14 -11 0 -6 7 -8 15 -5 39 16 47 16 18 -1 -37 -21 -40 -34
-11 -49 18 -10 19 -12 3 -27 -12 -13 -21 -14 -35 -7 -24 13 -30 13 -30 -1 0
-5 5 -7 11 -3 7 4 10 1 7 -7 -3 -8 -15 -13 -27 -13 -26 2 -19 -9 9 -13 11 -2
20 2 20 7 0 6 11 3 25 -6 15 -10 25 -12 25 -5 0 6 -6 11 -14 11 -8 0 -18 4
-21 10 -4 6 2 7 17 1 34 -12 34 -81 0 -81 -13 0 -12 3 4 15 19 15 19 15 0 30
-18 13 -22 13 -38 -2 -10 -9 -15 -19 -12 -22 4 -3 9 0 11 7 6 15 33 16 33 1 0
-5 -5 -7 -12 -3 -6 4 -8 3 -5 -3 4 -6 0 -14 -9 -17 -9 -3 -14 -13 -10 -21 3
-8 1 -17 -4 -20 -6 -4 -10 -11 -10 -17 0 -5 9 0 20 13 18 22 26 17 21 -13 -2
-13 17 -9 22 5 3 6 6 7 6 1 1 -5 -12 -20 -28 -32 -21 -15 -28 -27 -24 -42 3
-11 10 -20 15 -20 5 0 7 -4 4 -9 -4 -5 -17 -8 -31 -7 -13 2 -22 -1 -19 -6 3
-5 12 -7 20 -4 7 3 16 1 19 -4 4 -6 1 -10 -5 -10 -6 0 -8 -5 -5 -10 4 -6 12
-10 18 -9 26 3 37 -2 37 -16 0 -9 -7 -18 -15 -21 -15 -6 -22 -45 -7 -43 34 6
44 -16 12 -26 -23 -7 -22 -26 3 -41 18 -10 18 -12 2 -27 -12 -13 -21 -14 -35
-7 -13 7 -21 7 -26 -2 -4 -7 -3 -8 4 -4 20 12 13 -13 -8 -34 -11 -11 -16 -20
-10 -20 5 0 15 9 22 19 11 17 14 18 35 4 14 -10 23 -11 23 -4 0 6 -6 11 -14
11 -8 0 -18 4 -21 10 -4 6 2 7 17 1 33 -12 34 -81 1 -81 -8 0 -11 -5 -8 -10 4
-7 12 -7 25 0 10 5 22 10 27 10 4 -1 -3 -7 -17 -14 -14 -8 -28 -12 -32 -10 -4
2 -6 -5 -5 -16 1 -22 13 -27 20 -7 4 9 6 9 6 -1 1 -7 -6 -15 -14 -18 -8 -4
-12 -10 -9 -15 3 -5 10 -7 15 -4 5 4 17 1 26 -5 15 -9 14 -10 -6 -4 -25 7 -24
-1 8 -41 16 -20 16 -20 -6 -2 -14 12 -23 15 -28 7 -11 -17 -23 -2 -19 25 2 20
-1 24 -10 16 -7 -6 -16 -7 -21 -3 -4 4 -1 -3 6 -16 12 -21 12 -25 -5 -38 -11
-8 -15 -14 -9 -14 7 0 14 4 18 9 3 5 18 8 33 7 30 -4 37 -30 13 -58 -12 -15
-12 -18 2 -23 13 -5 15 -23 7 -45 -1 -3 -3 -12 -4 -20 0 -8 -6 -14 -12 -13 -7
1 -14 -10 -17 -25 -3 -15 -15 -37 -27 -50 -11 -12 -42 -50 -68 -85 -59 -77
-334 -429 -350 -448 -7 -8 -81 -102 -165 -210 -200 -257 -205 -264 -252 -323
-60 -76 -312 -399 -374 -480 -30 -39 -57 -73 -60 -76 -3 -3 -28 -34 -56 -70
-27 -36 -54 -70 -60 -77 -19 -23 -30 -38 -123 -158 -95 -123 -99 -128 -142
-181 -14 -17 -36 -45 -50 -64 -45 -60 -184 -235 -197 -248 -7 -7 -13 -17 -13
-20 0 -4 -10 -18 -22 -32 -13 -14 -35 -41 -49 -60 -15 -19 -36 -46 -48 -59
-11 -13 -21 -27 -21 -30 0 -3 -13 -20 -28 -37 -28 -33 -58 -70 -111 -139 -17
-22 -34 -44 -38 -50 -41 -52 -119 -151 -123 -155 -3 -3 -25 -32 -50 -65 -25
-33 -47 -62 -50 -65 -5 -4 -59 -74 -82 -105 -4 -5 -18 -23 -32 -40 -13 -16
-78 -100 -145 -185 -67 -85 -132 -168 -146 -185 -13 -16 -59 -75 -102 -131
-43 -55 -90 -116 -105 -135 -43 -55 -182 -233 -190 -244 -4 -5 -23 -29 -40
-51 -18 -23 -44 -56 -58 -74 -36 -47 -88 -112 -108 -136 -9 -11 -28 -36 -42
-54 -23 -30 -222 -286 -277 -355 -13 -16 -27 -34 -31 -40 -4 -5 -28 -37 -54
-70 -27 -33 -102 -130 -169 -215 -126 -162 -167 -214 -184 -234 -5 -6 -32 -40
-60 -76 -27 -36 -53 -66 -57 -68 -5 -2 -8 -10 -8 -17 0 -7 -4 -15 -8 -17 -5
-1 -33 -34 -62 -73 -30 -38 -57 -72 -60 -75 -29 -26 -127 -173 -143 -214 -23
-59 -31 -189 -16 -238 56 -177 188 -291 351 -303 67 -5 339 -9 448 -6 8 0 71
0 140 0 69 -1 131 -1 138 0 6 1 18 1 25 2 12 0 163 0 347 -2 52 0 111 1 130 1
19 1 40 2 45 2 6 -1 53 -1 105 -2 52 0 140 0 195 -1 55 -1 106 -1 113 0 27 2
42 2 182 2 80 0 152 0 160 0 17 0 212 -1 350 -2 52 0 111 1 130 1 19 1 40 2
45 2 6 -1 53 -1 105 -2 52 0 140 0 195 -1 55 -1 106 -1 113 0 34 3 243 3 302
1 25 -1 52 -2 60 -2 8 1 80 1 160 1 80 0 152 0 160 0 8 0 80 0 160 0 80 0 150
0 155 0 6 0 56 1 113 3 56 2 102 1 102 -2 0 -3 19 -4 42 -4 49 1 75 -20 55
-45 -10 -12 -9 -13 2 -6 11 6 13 4 8 -8 -4 -12 -2 -14 11 -10 15 6 15 5 3 -10
-7 -9 -16 -15 -20 -13 -4 3 -13 0 -21 -5 -12 -8 -11 -9 4 -7 10 2 21 -3 24
-11 3 -8 0 -11 -7 -7 -6 4 -11 2 -11 -3 0 -6 3 -11 8 -11 16 0 29 16 26 33 -1
9 1 15 5 13 4 -3 7 6 7 19 0 13 -4 21 -10 18 -5 -3 -6 -1 -2 6 4 6 12 9 17 6
5 -4 9 -1 9 5 0 7 -7 9 -16 6 -9 -3 -12 -2 -9 4 4 6 1 9 -6 8 -6 -2 -13 2 -15
7 -2 6 4 11 15 11 11 0 17 -5 14 -10 -4 -6 1 -6 13 -2 10 4 15 4 12 0 -4 -4
-3 -15 2 -25 6 -11 6 -20 1 -23 -5 -4 -8 -17 -7 -30 2 -15 -1 -23 -9 -20 -6 3
-12 -2 -12 -11 0 -11 6 -13 20 -9 14 4 17 3 12 -6 -4 -6 -16 -10 -26 -7 -10 3
-22 1 -25 -5 -3 -5 -13 -7 -23 -3 -12 5 -13 4 -4 -6 10 -10 16 -9 28 1 14 12
15 9 10 -20 -5 -28 -3 -32 12 -28 13 4 19 0 19 -13 0 -10 -3 -16 -7 -13 -4 2
-10 -3 -13 -12 -5 -12 -2 -15 11 -10 10 4 14 4 11 0 -4 -4 -3 -15 2 -25 7 -12
7 -20 0 -24 -8 -5 -7 -12 2 -23 11 -15 11 -15 -2 -6 -8 6 -23 10 -32 9 -23 -4
-23 4 0 22 9 8 11 11 3 7 -9 -5 -12 -3 -7 5 4 6 12 9 17 6 5 -4 9 -1 9 5 0 7
-7 9 -16 6 -10 -4 -13 -2 -8 7 6 8 3 8 -8 -1 -10 -8 -14 -20 -11 -29 4 -9 2
-14 -3 -11 -5 4 -10 -9 -10 -27 0 -20 4 -31 10 -28 5 4 7 0 3 -10 -4 -11 -2
-14 8 -10 8 3 13 9 10 13 -3 5 5 6 17 3 14 -4 20 -2 15 3 -5 5 -18 9 -30 9
-11 0 -22 5 -24 11 -2 6 3 11 12 11 8 0 15 -4 15 -9 0 -5 4 -7 9 -3 5 3 13 0
17 -6 5 -9 11 -7 21 6 7 11 13 14 13 8 0 -6 -7 -16 -15 -23 -8 -7 -12 -17 -9
-22 4 -6 -2 -7 -17 -3 -19 6 -22 5 -13 -6 13 -17 16 -59 4 -59 -4 0 -7 11 -5
25 1 14 -1 27 -4 29 -10 7 -45 -23 -37 -31 4 -4 11 -1 16 7 6 9 10 10 10 3 0
-7 -8 -17 -17 -23 -15 -10 -15 -11 -1 -6 24 7 30 -5 10 -21 -15 -13 -15 -13 5
-4 28 14 33 14 33 -1 0 -6 -3 -8 -6 -5 -4 3 -15 2 -25 -3 -13 -8 -20 -6 -28 7
-10 17 -10 16 -11 -2 -1 -11 -4 -14 -7 -8 -3 10 -10 10 -25 2 -16 -9 -19 -8
-13 2 6 9 4 10 -6 3 -8 -5 -880 -9 -2039 -10 l-2025 -1 -54 -22 c-75 -31 -135
-74 -181 -132 -39 -50 -80 -142 -80 -182 0 -12 -4 -29 -10 -37 -5 -9 -5 -19 1
-27 7 -8 7 -18 0 -31 -6 -11 -8 -22 -5 -25 9 -9 11 -127 2 -127 -5 0 -6 -5 -2
-11 11 -18 11 -83 1 -96 -6 -8 -6 -13 0 -13 5 0 9 -9 10 -20 1 -11 -3 -20 -8
-20 -6 0 -7 -5 -3 -11 11 -18 11 -83 1 -96 -6 -8 -6 -13 0 -13 5 0 9 -9 10
-20 1 -11 -3 -20 -8 -20 -6 0 -6 -6 0 -17 5 -10 10 -20 12 -23 1 -3 -3 -14 -9
-26 -8 -16 -8 -24 1 -34 9 -10 9 -14 0 -17 -10 -4 -10 -10 -1 -26 6 -12 12
-22 12 -23 1 0 -5 -8 -13 -17 -7 -10 -9 -17 -4 -17 5 0 9 -9 10 -20 1 -11 -3
-20 -8 -20 -7 0 3 -32 15 -46 1 0 -5 -8 -13 -17 -7 -10 -9 -17 -4 -17 16 0 11
-34 -6 -48 -13 -10 -13 -12 -2 -10 12 3 15 -18 16 -109 0 -62 -3 -113 -7 -113
-5 0 -5 -8 0 -18 10 -20 10 -32 -1 -49 -5 -7 -4 -13 0 -13 5 0 9 -9 10 -20 1
-11 -3 -20 -8 -20 -6 0 -6 -7 -1 -17 10 -21 10 -33 -1 -50 -5 -7 -4 -13 1 -13
15 0 10 -34 -7 -48 -13 -10 -13 -12 -2 -10 12 2 15 -13 16 -77 1 -44 -2 -87
-6 -96 -5 -9 -3 -21 4 -29 9 -10 9 -14 0 -17 -8 -3 -10 -11 -5 -21 10 -20 9
-33 -1 -49 -5 -7 -4 -13 0 -13 5 0 9 -9 10 -20 1 -11 -3 -20 -8 -20 -6 0 -6
-7 -1 -17 10 -21 10 -33 -1 -50 -5 -7 -4 -13 1 -13 12 0 11 -34 -2 -42 -8 -5
-7 -8 2 -8 9 0 10 -5 3 -18 -7 -13 -6 -23 2 -32 9 -10 9 -14 0 -17 -8 -3 -10
-11 -5 -21 10 -20 9 -33 -1 -49 -5 -7 -4 -13 0 -13 5 0 9 -9 10 -20 1 -11 -3
-20 -8 -20 -6 0 -6 -7 -1 -17 10 -21 10 -33 -1 -50 -5 -7 -4 -13 1 -13 15 0
10 -34 -7 -48 -13 -10 -13 -12 -2 -10 12 3 15 -18 16 -109 0 -62 -3 -113 -7
-113 -5 0 -5 -8 0 -18 10 -20 10 -32 -1 -50 -5 -6 -4 -12 0 -12 5 0 9 -9 10
-20 1 -11 -3 -20 -8 -20 -6 0 -6 -7 -1 -17 10 -21 10 -33 -1 -50 -5 -7 -4 -13
1 -13 15 0 10 -34 -7 -48 -13 -10 -13 -12 -2 -10 12 2 15 -13 16 -77 1 -44 -2
-87 -6 -96 -5 -9 -3 -21 4 -29 9 -10 9 -14 0 -17 -8 -3 -10 -11 -5 -21 10 -20
9 -33 -1 -49 -5 -7 -4 -13 0 -13 5 0 9 -9 10 -20 1 -11 -3 -20 -8 -20 -6 0 -6
-7 -1 -17 10 -21 10 -33 -1 -51 -5 -6 -4 -12 1 -12 12 0 11 -34 -2 -42 -8 -5
-7 -8 2 -8 9 0 10 -5 3 -18 -7 -13 -6 -23 2 -32 9 -10 9 -14 0 -17 -8 -3 -10
-11 -5 -21 10 -20 9 -33 -1 -49 -5 -7 -4 -13 0 -13 5 0 9 -9 10 -20 1 -11 -3
-20 -8 -20 -6 0 -6 -7 -1 -18 10 -20 10 -32 -1 -49 -5 -7 -4 -13 1 -13 15 0
10 -34 -7 -48 -13 -10 -13 -12 -2 -10 12 3 15 -18 16 -110 0 -61 -3 -112 -7
-112 -5 0 -5 -8 0 -17 10 -21 10 -33 -1 -50 -5 -7 -4 -13 0 -13 5 0 9 -9 10
-20 1 -11 -3 -20 -8 -20 -6 0 -6 -7 -1 -17 10 -21 10 -33 -1 -50 -5 -7 -4 -13
1 -13 15 0 10 -34 -7 -48 -12 -9 -12 -12 -2 -10 11 2 15 -14 17 -67 5 -89 6
-95 16 -95 4 0 8 -6 8 -14 0 -15 15 -44 45 -91 21 -33 95 -105 107 -105 5 0 8
-8 8 -17 0 -15 2 -16 10 -3 6 10 10 11 10 3 0 -7 9 -13 20 -13 11 0 20 -5 20
-11 0 -5 5 -7 10 -4 6 3 10 2 10 -3 0 -5 10 -8 23 -8 12 1 21 -4 20 -11 -2 -8
6 -9 27 -3 17 5 30 5 30 0 0 -4 9 -6 21 -3 12 4 25 0 30 -8 6 -9 9 -10 9 -2 0
16 110 16 110 -1 0 -8 3 -7 8 1 10 15 104 15 114 -1 6 -8 8 -8 8 1 0 16 110
16 110 -1 0 -8 3 -7 8 1 10 15 104 15 114 -1 6 -8 8 -8 8 1 0 16 110 16 110
-1 0 -8 3 -7 8 1 10 15 104 15 114 -1 6 -8 8 -8 8 1 0 16 110 16 110 -1 0 -8
3 -7 8 1 10 15 104 15 114 -1 6 -8 8 -8 8 1 0 16 110 16 110 -1 0 -8 3 -7 8 1
10 15 104 15 114 -1 6 -8 8 -8 8 1 0 16 110 16 110 -1 0 -8 2 -8 8 1 10 16
112 15 112 0 0 -9 2 -9 8 -1 10 17 345 17 335 1 -5 -9 -3 -9 8 -1 8 6 47 12
87 13 57 1 72 -1 66 -11 -6 -10 -4 -10 7 -2 8 6 47 12 87 13 57 1 72 -1 66
-11 -6 -10 -4 -10 7 -2 8 6 47 12 87 13 57 1 72 -1 66 -11 -6 -10 -4 -10 7 -2
8 6 47 12 87 13 57 1 72 -1 66 -11 -6 -10 -4 -10 7 -2 8 6 47 12 87 13 57 1
72 -1 66 -11 -6 -10 -4 -10 7 -2 8 6 47 12 87 13 57 1 72 -1 66 -11 -6 -10 -4
-10 7 -2 8 6 47 12 87 13 57 1 72 -1 66 -11 -6 -10 -4 -11 7 0 7 6 21 12 31
12 10 0 18 -6 18 -12 0 -10 2 -10 8 -1 10 15 104 15 114 -1 6 -8 8 -8 8 1 0
16 110 16 110 -1 0 -8 3 -7 8 1 10 15 104 15 114 -1 6 -8 8 -8 8 1 0 16 110
16 110 -1 0 -8 3 -7 8 1 10 15 104 15 114 -1 6 -8 8 -8 8 1 0 16 110 16 110
-1 0 -8 3 -7 8 1 10 15 104 15 114 -1 6 -8 8 -8 8 1 0 16 110 16 110 -1 0 -8
3 -8 8 1 10 15 273 14 284 -2 5 -6 8 -6 8 3 0 6 5 12 11 12 5 0 7 -4 4 -10 -3
-5 -1 -10 4 -10 6 0 11 5 11 10 0 6 12 10 26 10 14 0 23 -3 21 -7 -3 -5 5 -17
16 -28 l20 -20 -13 23 c-6 13 -8 27 -4 30 4 4 9 1 11 -6 3 -6 10 -9 16 -5 14
9 107 12 107 3 0 -3 -7 -16 -16 -28 -11 -16 -22 -21 -37 -17 -20 5 -20 5 -4
-5 15 -9 22 -8 37 5 13 12 20 13 25 4 6 -8 10 -7 17 5 8 14 12 14 37 2 21 -11
31 -12 40 -3 15 15 14 -5 -1 -23 -11 -12 -10 -12 4 -2 13 10 17 10 22 0 3 -7
3 -3 0 10 -5 21 -4 22 14 11 17 -11 18 -15 6 -26 -24 -24 -16 -25 16 -2 16 12
27 26 24 30 -2 4 0 11 6 14 7 5 8 11 1 19 -7 9 8 12 64 11 40 0 71 -4 68 -8
-7 -11 30 -4 39 7 4 6 12 5 21 -3 9 -6 18 -8 20 -4 3 5 31 9 61 8 31 0 56 3
56 8 0 12 18 8 35 -9 9 -9 13 -19 10 -23 -4 -3 -13 2 -20 12 -7 10 -16 14 -19
9 -3 -6 -24 -9 -46 -7 -33 2 -38 0 -29 -11 11 -14 -2 -20 -15 -7 -10 11 -36
12 -36 2 0 -5 -5 -9 -11 -9 -5 0 -8 4 -4 9 3 5 1 13 -5 16 -6 4 -10 3 -9 -2 4
-20 -2 -24 -18 -12 -9 8 -14 9 -10 3 3 -6 0 -11 -8 -11 -8 0 -15 5 -15 11 0 6
-5 4 -10 -4 -7 -11 -10 -11 -10 -2 0 7 -4 10 -10 7 -5 -3 -10 -1 -10 5 0 6 -4
8 -10 5 -5 -3 -10 -11 -10 -16 0 -6 4 -7 10 -4 5 3 22 -6 36 -20 15 -15 24
-20 21 -11 -3 8 -2 18 3 21 13 8 18 -18 8 -40 -9 -19 -8 -19 6 -2 8 11 12 26
9 35 -5 13 0 12 18 -5 21 -19 26 -20 43 -7 11 8 15 14 10 14 -6 0 -15 -5 -21
-11 -6 -6 -13 -7 -17 -1 -3 5 6 14 19 20 22 10 26 8 40 -16 9 -15 14 -19 11
-10 -7 23 19 44 28 22 4 -9 9 -14 13 -11 3 4 0 13 -7 22 -8 9 -9 15 -2 15 6 0
16 -8 21 -17 10 -17 10 -17 11 0 0 20 11 22 27 6 16 -16 34 -2 26 19 -6 15 -5
15 10 3 9 -7 17 -10 18 -5 0 5 4 0 9 -11 6 -15 9 -16 9 -4 1 9 -9 24 -21 35
-12 10 -19 14 -15 8 3 -6 0 -11 -8 -11 -15 0 -22 16 -7 18 25 2 46 9 51 16 10
14 33 15 25 1 -4 -7 -4 -10 1 -6 4 4 16 3 25 -2 13 -7 22 -5 31 7 10 12 10 15
2 9 -8 -4 -13 -2 -13 6 0 10 -3 9 -10 -2 -5 -8 -13 -11 -17 -6 -8 8 11 21 21
14 3 -2 12 6 21 17 9 11 13 13 9 5 -7 -13 -5 -13 8 -2 13 10 17 10 21 0 3 -8
6 -6 6 5 1 14 7 17 24 13 12 -3 16 -3 9 0 -10 5 -10 9 -1 20 14 17 33 19 23 2
-5 -7 -3 -8 5 -4 7 5 10 10 7 13 -2 3 12 21 31 41 39 41 72 105 73 140 0 16 4
21 13 16 10 -6 10 -4 0 7 -17 17 -17 81 0 98 7 8 7 11 1 8 -17 -10 -18 211 -1
232 7 8 7 12 1 8 -17 -10 -18 211 -2 231 8 9 8 13 2 9 -17 -10 -18 211 -1 232
7 8 7 12 1 8 -17 -10 -18 211 -2 231 8 9 8 13 2 9 -17 -10 -18 211 -1 232 7 8
7 12 1 8 -17 -10 -18 211 -2 231 8 9 8 13 2 9 -17 -10 -18 211 -1 232 7 8 7
12 1 8 -17 -10 -18 211 -2 231 8 9 8 13 2 9 -17 -10 -18 211 -1 232 7 8 7 12
1 8 -17 -10 -18 211 -2 231 8 9 8 13 2 9 -17 -10 -18 211 -1 232 7 8 7 12 1 8
-17 -10 -18 211 -2 231 8 9 8 13 2 9 -17 -10 -18 211 -1 232 7 8 7 12 1 8 -17
-10 -18 211 -2 231 7 9 8 13 2 9 -7 -4 -11 8 -12 34 -1 30 1 38 11 33 9 -6 9
-5 0 7 -17 21 -16 162 0 152 9 -5 9 -3 1 8 -9 10 -12 1220 -12 4714 l1 4700
-24 45 c-13 25 -22 50 -20 55 1 6 0 7 -4 3 -4 -4 -17 4 -30 16 -13 13 -40 34
-62 47 -21 13 -44 30 -51 39 -8 8 -11 9 -7 3 4 -9 1 -11 -9 -7 -9 3 -16 10
-16 16 0 5 -6 8 -12 6 -7 -1 -24 4 -38 12 -14 7 -27 13 -30 13 -3 -1 -4 3 -2
9 1 5 -3 6 -10 2 -14 -9 -56 -6 -73 4 -11 7 -17 8 -53 10 -16 2 -21 6 -16 15
5 7 0 6 -11 -3 -17 -14 -18 -13 -12 3 17 41 19 52 6 32 -17 -28 -16 -28 -29
-20 -8 5 -7 11 2 23 12 15 11 16 -5 3 -17 -13 -17 -15 0 -33 14 -15 14 -19 3
-16 -8 2 -21 10 -28 18 -12 13 -13 12 -7 -4 6 -19 5 -19 -15 -1 -16 14 -23 16
-32 7 -16 -16 -29 -15 -22 1 3 8 -3 20 -12 28 -10 8 -15 9 -11 2 4 -6 4 -13 0
-16 -5 -2 -2 -2 6 0 9 2 11 -2 7 -13 -3 -8 -6 -18 -6 -21 0 -2 -7 3 -16 12
-10 9 -20 12 -23 7 -3 -5 -14 -8 -23 -6 -10 1 -18 -3 -18 -9 0 -5 -2 -8 -5 -5
-10 10 7 37 20 32 7 -3 15 -1 19 4 6 10 -30 9 -40 -1 -4 -4 -17 1 -28 10 -21
18 -21 18 -3 -3z m-242 -89 c5 4 9 1 9 -4 0 -14 -17 -14 -25 0 -4 6 -14 8 -22
4 -13 -5 -14 -3 -3 10 12 15 14 15 22 0 5 -8 13 -13 19 -10z m-215 -110 c9 -9
11 -15 4 -15 -6 0 -15 -10 -20 -22 -7 -19 -9 -19 -9 -5 -1 10 -6 15 -11 12 -7
-4 -7 -12 0 -25 13 -24 13 -30 -1 -30 -5 0 -7 5 -4 10 3 6 0 10 -8 10 -7 0
-14 -7 -14 -15 0 -8 4 -15 9 -15 4 0 8 -4 8 -10 0 -5 -7 -7 -15 -4 -8 4 -15 1
-15 -5 0 -6 5 -11 12 -11 16 0 -4 -21 -23 -23 -8 -2 -20 -6 -26 -10 -21 -13
-15 2 12 29 14 14 23 30 20 35 -4 5 -1 9 5 9 6 0 8 5 5 10 -3 6 1 13 10 16 13
5 14 9 4 15 -10 6 -8 14 11 33 28 30 27 30 46 11z m34 -25 c-8 -5 -19 -10 -25
-10 -5 0 -3 5 5 10 8 5 20 10 25 10 6 0 3 -5 -5 -10z m-20 -30 c0 -5 -2 -10
-4 -10 -3 0 -8 5 -11 10 -3 6 -1 10 4 10 6 0 11 -4 11 -10z m-33 -62 c-3 -8
-6 -5 -6 6 -1 11 2 17 5 13 3 -3 4 -12 1 -19z m-1 -42 c0 -14 -3 -23 -7 -20
-6 3 -6 22 0 42 3 10 7 -2 7 -22z m-48 -23 c0 -21 -2 -23 -10 -9 -5 9 -6 21
-3 26 10 16 13 12 13 -17z m-45 -17 c4 -10 1 -13 -8 -9 -8 3 -12 9 -9 14 7 12
11 11 17 -5z m94 -11 c0 -8 -4 -12 -9 -9 -5 3 -6 10 -3 15 9 13 12 11 12 -6z
m-8 -49 c9 -11 9 -16 -1 -22 -7 -4 -10 -4 -6 1 4 4 3 14 -3 22 -6 7 -9 13 -6
13 2 0 10 -6 16 -14z m-32 -13 c-9 -2 -14 -9 -11 -15 4 -7 2 -8 -5 -4 -15 10
-4 26 17 25 15 -1 15 -2 -1 -6z m43 -57 c0 -3 -4 -8 -10 -11 -5 -3 -10 -1 -10
4 0 6 5 11 10 11 6 0 10 -2 10 -4z m-39 -34 c-7 -2 -18 1 -23 6 -8 8 -4 9 13
5 13 -4 18 -8 10 -11z m34 -52 c-3 -5 -12 -10 -18 -10 -7 0 -6 4 3 10 19 12
23 12 15 0z m2 -35 c0 -8 -4 -12 -9 -9 -5 3 -6 10 -3 15 9 13 12 11 12 -6z
m-8 -49 c9 -11 9 -16 -1 -22 -7 -4 -10 -4 -6 1 4 4 3 14 -3 22 -6 7 -9 13 -6
13 2 0 10 -6 16 -14z m-19 -40 c0 -3 -4 -8 -10 -11 -5 -3 -10 -1 -10 4 0 6 5
11 10 11 6 0 10 -2 10 -4z m30 -30 c0 -3 -4 -8 -10 -11 -5 -3 -10 -1 -10 4 0
6 5 11 10 11 6 0 10 -2 10 -4z m-3 -71 c0 -8 -4 -12 -9 -9 -5 3 -6 10 -3 15 9
13 12 11 12 -6z m2 -54 c-2 -6 -10 2 -17 17 -11 25 -11 25 4 10 9 -9 15 -21
13 -27z m-25 -19 c3 -5 -1 -9 -9 -9 -8 0 -15 4 -15 9 0 4 4 8 9 8 6 0 12 -4
15 -8z m26 -96 c0 -3 -4 -8 -10 -11 -5 -3 -10 -1 -10 4 0 6 5 11 10 11 6 0 10
-2 10 -4z m-39 -34 c-7 -2 -18 1 -23 6 -8 8 -4 9 13 5 13 -4 18 -8 10 -11z
m34 -52 c-3 -5 -12 -10 -18 -10 -7 0 -6 4 3 10 19 12 23 12 15 0z m2 -35 c0
-8 -4 -12 -9 -9 -5 3 -6 10 -3 15 9 13 12 11 12 -6z m-8 -49 c9 -11 9 -16 -1
-22 -7 -4 -10 -4 -6 1 4 4 3 14 -3 22 -6 7 -9 13 -6 13 2 0 10 -6 16 -14z
m-74 -16 c4 -7 13 -6 26 1 12 6 23 9 25 6 2 -2 -7 -9 -21 -15 -15 -7 -26 -8
-30 -1 -4 5 -11 7 -16 4 -5 -4 -9 -1 -9 4 0 14 17 14 25 1z m55 -24 c0 -3 -4
-8 -10 -11 -5 -3 -10 -1 -10 4 0 6 5 11 10 11 6 0 10 -2 10 -4z m30 -30 c0 -3
-4 -8 -10 -11 -5 -3 -10 -1 -10 4 0 6 5 11 10 11 6 0 10 -2 10 -4z m-32 -31
c4 -4 -4 -4 -16 0 -22 6 -23 5 -12 -15 6 -12 9 -24 6 -28 -3 -3 -6 0 -6 7 0 7
-5 9 -10 6 -6 -4 -7 -11 -4 -17 4 -6 0 -14 -7 -19 -11 -7 -11 -9 3 -9 9 0 19
5 21 10 3 6 4 5 3 -1 -3 -16 -45 -32 -42 -16 1 7 5 17 9 24 4 6 3 14 -2 18 -6
3 -7 13 -4 22 5 12 3 14 -8 8 -12 -7 -12 -6 -1 7 13 16 56 18 70 3z m28 -42
c-2 -9 -9 -19 -17 -21 -11 -3 -11 -1 1 7 8 6 11 11 7 11 -5 0 -5 5 -2 10 9 15
14 12 11 -7z m-30 -53 c0 -12 -4 -16 -9 -11 -5 5 -6 14 -3 20 10 15 12 14 12
-9z m31 -2 c-3 -8 -6 -5 -6 6 -1 11 2 17 5 13 3 -3 4 -12 1 -19z m-6 -61 c-10
-9 -11 -8 -5 6 3 10 9 15 12 12 3 -3 0 -11 -7 -18z m-26 3 c4 -6 -1 -7 -11 -3
-13 5 -15 3 -9 -7 5 -9 4 -11 -4 -6 -6 4 -9 12 -6 17 8 12 22 12 30 -1z m35
-54 c0 -3 -4 -8 -10 -11 -5 -3 -10 -1 -10 4 0 6 5 11 10 11 6 0 10 -2 10 -4z
m-39 -34 c-7 -2 -18 1 -23 6 -8 8 -4 9 13 5 13 -4 18 -8 10 -11z m34 -52 c-3
-5 -12 -10 -18 -10 -7 0 -6 4 3 10 19 12 23 12 15 0z m2 -35 c0 -8 -4 -12 -9
-9 -5 3 -6 10 -3 15 9 13 12 11 12 -6z m-8 -49 c9 -11 9 -16 -1 -22 -7 -4 -10
-4 -6 1 4 4 3 14 -3 22 -6 7 -9 13 -6 13 2 0 10 -6 16 -14z m-19 -40 c0 -3 -4
-8 -10 -11 -5 -3 -10 -1 -10 4 0 6 5 11 10 11 6 0 10 -2 10 -4z m30 -30 c0 -3
-4 -8 -10 -11 -5 -3 -10 -1 -10 4 0 6 5 11 10 11 6 0 10 -2 10 -4z m-3 -75 c0
-11 -5 -18 -9 -15 -4 3 -5 11 -1 19 7 21 12 19 10 -4z m-3 -39 c3 -5 -1 -9 -9
-9 -8 0 -12 4 -9 9 3 4 7 8 9 8 2 0 6 -4 9 -8z m-34 -32 c0 -5 -5 -10 -11 -10
-5 0 -7 5 -4 10 3 6 8 10 11 10 2 0 4 -4 4 -10z m37 -5 c0 -8 -4 -12 -9 -9 -4
3 -8 9 -8 15 0 5 4 9 8 9 5 0 9 -7 9 -15z m-82 -2192 c0 -35 -4 -59 -9 -55 -6
3 -6 -3 -2 -14 14 -35 17 -64 6 -64 -6 0 -9 4 -6 9 3 4 -7 13 -22 20 -25 10
-25 10 -8 -3 10 -8 16 -22 13 -30 -4 -10 -1 -13 7 -10 8 3 17 0 22 -7 4 -8 3
-10 -4 -5 -13 8 -17 -6 -5 -18 10 -10 12 -36 3 -36 -5 0 -12 5 -15 10 -3 6 -1
10 6 10 7 0 10 2 7 5 -8 8 -38 -6 -38 -17 0 -5 5 -6 12 -2 7 5 9 2 5 -9 -4
-11 -2 -14 7 -11 8 3 17 0 22 -7 4 -8 3 -10 -4 -5 -13 8 -17 -6 -5 -17 8 -9
10 -166 2 -161 -4 2 -9 -3 -13 -11 -3 -8 0 -14 6 -12 6 1 11 -18 12 -50 1 -30
-2 -49 -8 -46 -6 4 -6 -2 -2 -13 14 -35 17 -64 6 -64 -6 0 -9 4 -6 8 2 4 -5
14 -17 22 -20 12 -21 12 -8 -3 8 -10 10 -24 6 -34 -13 -30 -14 -47 -4 -60 6
-7 7 -18 3 -25 -13 -20 -15 -46 -4 -53 6 -3 10 -11 10 -16 0 -6 -4 -7 -10 -4
-5 3 -10 1 -10 -5 0 -7 8 -9 19 -5 11 3 23 0 27 -6 4 -8 3 -9 -4 -5 -13 8 -17
-6 -5 -18 10 -10 12 -36 3 -36 -14 0 -21 18 -10 23 6 3 5 4 -2 3 -7 -2 -12
-11 -10 -21 2 -10 -1 -14 -7 -10 -6 3 -11 1 -11 -5 0 -7 8 -9 19 -5 11 3 23 0
27 -6 4 -8 3 -9 -4 -5 -13 8 -17 -6 -5 -18 11 -11 11 -46 0 -39 -7 4 -7 -1 -3
-13 5 -10 9 -43 10 -71 1 -39 -2 -53 -13 -53 -11 0 -11 3 0 18 13 15 12 16 -3
3 -20 -15 -25 -2 -6 17 7 7 8 12 4 12 -5 0 -4 6 2 13 8 10 5 16 -11 27 -20 12
-21 12 -8 -4 13 -15 13 -19 0 -27 -10 -6 -11 -9 -1 -9 7 0 10 -5 7 -10 -5 -8
-11 -8 -19 -1 -9 8 -13 7 -13 -4 0 -8 2 -13 5 -10 3 2 13 -7 24 -20 11 -14 23
-23 26 -21 4 2 7 -18 7 -44 0 -27 -4 -46 -9 -42 -6 3 -6 -3 -2 -14 14 -35 17
-64 6 -64 -6 0 -9 4 -6 8 2 4 -5 14 -17 22 -20 12 -21 12 -8 -3 8 -10 10 -24
6 -34 -13 -31 -14 -47 -3 -60 7 -9 7 -17 1 -25 -6 -7 -9 -24 -8 -38 1 -14 -2
-31 -8 -38 -7 -9 -6 -11 7 -6 9 3 16 12 16 19 0 7 3 15 8 18 4 2 1 2 -5 1 -8
-2 -12 5 -9 18 3 25 21 34 32 17 4 -8 3 -9 -4 -5 -13 8 -17 -6 -5 -18 10 -10
11 -46 1 -40 -4 3 -8 1 -8 -5 0 -5 4 -12 8 -15 4 -2 7 -22 6 -43 -1 -31 -4
-38 -20 -35 -18 2 -18 2 1 -13 15 -12 19 -28 20 -74 0 -34 -4 -57 -9 -53 -6 3
-6 -3 -2 -14 14 -35 17 -64 6 -64 -6 0 -9 4 -6 9 3 4 -7 13 -22 20 -24 10 -25
10 -9 -2 18 -15 24 -43 7 -32 -5 3 -10 1 -10 -5 0 -7 8 -9 19 -5 11 3 23 0 27
-6 4 -8 3 -9 -4 -5 -13 8 -17 -6 -5 -18 10 -10 12 -36 3 -36 -14 0 -21 18 -10
23 6 3 5 4 -2 3 -7 -2 -12 -11 -10 -21 2 -10 -1 -14 -7 -10 -6 3 -11 1 -11 -5
0 -7 8 -9 19 -5 11 3 23 0 27 -6 4 -8 3 -9 -4 -5 -13 8 -17 -6 -5 -18 11 -11
11 -46 0 -39 -7 4 -7 -1 -3 -13 5 -10 9 -43 10 -71 1 -39 -2 -53 -13 -53 -11
0 -11 3 0 18 13 15 12 16 -3 3 -20 -15 -25 -2 -6 17 7 7 8 12 4 12 -5 0 -4 6
2 13 8 10 5 16 -11 27 -20 12 -21 12 -8 -4 13 -15 13 -19 0 -27 -10 -6 -11 -9
-1 -9 7 0 10 -5 7 -10 -5 -8 -11 -8 -19 -1 -9 8 -13 7 -13 -4 0 -8 2 -13 5
-10 3 2 13 -7 24 -20 11 -14 23 -23 26 -21 4 2 7 -18 7 -44 0 -27 -4 -46 -9
-42 -6 3 -6 -3 -2 -14 14 -35 17 -64 6 -64 -6 0 -9 4 -6 8 2 4 -5 14 -17 22
-20 12 -21 12 -8 -3 8 -10 10 -24 6 -34 -13 -31 -14 -47 -3 -60 7 -9 7 -17 1
-25 -6 -7 -9 -24 -8 -38 1 -14 -2 -31 -8 -38 -7 -9 -6 -11 7 -6 9 3 16 12 16
19 0 7 3 15 8 18 4 2 1 2 -5 1 -8 -2 -12 5 -9 18 3 25 21 34 32 17 4 -8 3 -9
-4 -5 -13 8 -17 -6 -5 -18 10 -10 11 -46 1 -40 -4 3 -8 1 -8 -5 0 -5 4 -12 8
-15 4 -2 7 -22 6 -43 -1 -31 -4 -38 -20 -35 -18 2 -18 2 1 -13 15 -12 19 -28
20 -74 0 -34 -4 -57 -9 -53 -6 3 -6 -3 -2 -14 14 -35 17 -64 6 -64 -6 0 -9 4
-6 9 3 4 -7 13 -22 20 -24 10 -25 10 -9 -2 18 -15 24 -43 7 -32 -5 3 -10 1
-10 -5 0 -7 8 -9 19 -5 11 3 23 0 27 -6 4 -8 3 -9 -4 -5 -13 8 -17 -6 -5 -18
10 -10 12 -36 3 -36 -14 0 -21 18 -10 23 6 3 5 4 -2 3 -7 -2 -12 -11 -10 -21
2 -10 -1 -14 -7 -10 -6 3 -11 1 -11 -5 0 -7 8 -9 19 -5 11 3 23 0 27 -6 4 -8
3 -9 -4 -5 -13 8 -17 -6 -5 -18 11 -11 11 -46 0 -39 -7 4 -7 -1 -3 -13 5 -10
9 -43 10 -71 1 -39 -2 -53 -13 -53 -11 0 -11 3 0 18 13 15 12 16 -3 3 -20 -15
-25 -2 -6 17 7 7 8 12 4 12 -5 0 -4 6 2 13 8 10 5 16 -11 27 -20 12 -21 12 -8
-4 13 -15 13 -19 0 -27 -10 -6 -11 -9 -1 -9 7 0 10 -5 7 -10 -5 -8 -11 -8 -19
-1 -9 8 -13 7 -13 -4 0 -8 2 -13 5 -10 3 2 13 -7 24 -20 11 -14 23 -23 26 -21
4 2 7 -18 7 -44 0 -27 -4 -46 -9 -42 -6 3 -6 -3 -1 -14 9 -22 14 -113 6 -112
-3 0 -8 -1 -11 -2 -16 -8 -66 -5 -72 4 -5 7 -8 7 -8 1 0 -7 -422 -10 -1248 -9
-686 1 -1251 2 -1257 3 -6 1 -6 4 1 9 6 4 35 39 64 77 89 117 115 149 125 161
22 26 183 231 309 395 24 30 50 64 59 75 9 10 85 107 168 214 84 107 161 207
173 221 12 14 30 38 41 53 11 15 28 37 39 49 10 12 37 47 60 77 22 30 43 57
46 60 3 3 28 34 55 70 27 36 58 74 68 85 11 11 26 31 36 45 9 14 24 34 33 45
16 19 225 286 276 352 12 16 33 43 46 59 22 26 344 440 420 539 17 22 33 42
36 45 3 3 62 77 130 165 69 88 144 185 168 215 24 30 56 70 71 89 14 19 34 42
44 52 9 11 14 19 10 19 -4 0 7 12 24 28 17 15 34 37 37 50 4 12 11 20 16 17 4
-3 11 2 14 11 13 35 30 6 31 -53z m1 -635 c4 -7 3 -8 -4 -4 -13 8 -17 -6 -5
-18 10 -10 13 -36 3 -36 -21 0 -31 34 -21 68 2 7 21 0 27 -10z m0 -80 c4 -7 3
-8 -4 -4 -13 8 -17 -6 -5 -18 10 -10 13 -36 3 -36 -21 0 -31 34 -21 68 2 7 21
0 27 -10z m0 -560 c4 -7 3 -8 -4 -4 -13 8 -17 -6 -5 -18 10 -10 13 -36 3 -36
-21 0 -31 34 -21 68 2 7 21 0 27 -10z m0 -960 c4 -7 3 -8 -4 -4 -13 8 -17 -6
-5 -18 10 -10 13 -36 3 -36 -21 0 -31 34 -21 68 2 7 21 0 27 -10z m83 -2267
c-2 -6 -10 2 -17 17 -11 25 -11 25 4 10 9 -9 15 -21 13 -27z m-29 -15 c0 -3
-4 -8 -10 -11 -5 -3 -10 -1 -10 4 0 6 5 11 10 11 6 0 10 -2 10 -4z m28 -31
c-3 -3 -9 2 -12 12 -6 14 -5 15 5 6 7 -7 10 -15 7 -18z m-41 -56 c-9 -6 -15
-14 -12 -20 7 -11 3 -11 -20 -3 -14 6 -13 9 7 19 27 15 51 19 25 4z m41 -44
c0 -32 -9 -26 -12 9 -2 14 0 23 4 21 4 -3 8 -16 8 -30z m-2 -180 c-1 -8 -5
-17 -8 -21 -5 -4 -4 16 1 34 3 9 9 -1 7 -13z m-32 -24 c3 -5 -1 -11 -9 -14 -9
-4 -12 -1 -8 9 6 16 10 17 17 5z m34 -37 c0 -17 -3 -22 -8 -13 -5 6 -6 18 -3
26 8 19 11 16 11 -13z m-3291 -1257 c7 3 24 -3 36 -13 14 -12 17 -13 9 -3 -12
17 -6 33 10 23 5 -3 190 -5 411 -4 221 1 413 1 427 0 29 -2 45 -2 120 -1 30 1
194 1 363 0 169 -1 310 1 313 4 3 3 18 1 34 -3 16 -4 30 -6 33 -4 3 4 59 5
137 3 14 -1 50 -1 80 0 101 2 815 2 840 1 28 -2 39 -2 120 -1 260 3 296 -3
257 -47 -11 -12 -13 -22 -6 -35 6 -9 7 -17 4 -17 -3 0 2 -14 11 -31 8 -17 11
-28 5 -24 -15 9 -26 -24 -12 -38 13 -13 15 -47 2 -47 -4 0 -8 10 -7 21 1 15
-6 23 -19 25 -11 2 -21 8 -23 13 -2 6 -9 11 -15 11 -5 0 -7 -3 -4 -7 4 -3 1
-13 -6 -22 -11 -14 -10 -14 6 -2 15 12 21 9 18 -11 0 -4 5 -5 13 -2 10 4 12
-5 11 -32 -2 -24 3 -43 13 -53 14 -15 15 -14 9 2 -4 11 -3 16 4 12 5 -4 7 -16
3 -27 -5 -15 -3 -19 7 -13 12 7 12 5 1 -6 -7 -8 -17 -15 -23 -15 -5 -1 -13 -2
-19 -3 -5 0 -10 -6 -10 -12 0 -8 5 -8 15 1 15 12 22 0 8 -14 -13 -13 -12 -84
1 -89 7 -3 13 1 13 9 0 7 -5 10 -11 7 -6 -3 -5 0 1 8 10 10 16 10 25 1 7 -7 8
-12 2 -12 -5 0 -10 -9 -11 -20 -1 -11 2 -18 6 -16 4 3 8 -1 8 -8 0 -15 -21
-15 -34 -1 -4 4 -2 5 6 0 10 -5 12 -4 7 3 -5 9 -13 9 -27 2 -15 -9 -17 -15 -9
-30 5 -10 15 -21 22 -23 8 -4 7 -6 -3 -6 -20 -1 -33 -28 -18 -37 6 -3 13 -3
16 0 4 3 1 6 -6 6 -7 0 -9 5 -6 10 9 15 25 2 25 -21 0 -11 -4 -18 -8 -15 -4 2
-8 -11 -9 -30 0 -19 3 -34 8 -34 15 0 3 -42 -16 -56 -10 -8 -14 -14 -8 -14 7
0 15 5 18 10 5 8 11 8 19 1 7 -6 15 -9 18 -6 2 3 5 -2 5 -9 0 -11 -5 -12 -17
-6 -9 5 -22 5 -31 -1 -10 -6 -10 -9 -1 -10 6 -1 18 -2 25 -3 6 -1 11 -12 10
-24 -2 -13 1 -21 5 -18 5 3 9 -1 9 -8 0 -9 -9 -13 -24 -10 -12 2 -23 0 -23 -6
0 -6 4 -9 9 -5 6 3 9 -4 8 -15 -1 -11 -7 -20 -13 -20 -16 0 -26 -28 -13 -36 6
-3 13 -3 16 0 4 3 1 6 -6 6 -7 0 -9 5 -6 10 9 15 25 2 25 -21 0 -11 -4 -18 -8
-15 -12 7 -11 -58 1 -65 5 -4 2 -20 -8 -38 -14 -28 -18 -31 -33 -19 -15 12
-16 11 -3 -5 11 -13 17 -15 28 -6 21 18 28 2 7 -18 -9 -10 -21 -18 -25 -18
-23 0 -13 -10 12 -11 17 -1 28 3 27 10 -1 6 4 22 11 35 10 18 10 22 0 16 -8
-6 -10 -4 -4 5 6 9 4 11 -4 5 -10 -6 -11 -3 -2 14 13 24 17 25 27 9 4 -7 3 -8
-4 -4 -13 8 -17 -6 -5 -18 11 -11 12 -36 1 -36 -6 0 -4 -7 3 -17 12 -14 12
-15 0 -9 -10 7 -12 4 -7 -12 4 -12 2 -23 -5 -28 -8 -5 -9 -3 -4 7 7 12 6 12
-7 1 -11 -9 -18 -9 -21 -2 -3 6 -4 5 -2 -2 1 -7 7 -12 13 -11 5 1 9 -11 8 -27
0 -17 -5 -28 -11 -26 -5 1 -9 10 -7 19 1 8 -2 18 -8 22 -6 4 -7 -1 -3 -11 4
-12 3 -15 -6 -10 -9 6 -9 3 1 -13 7 -12 18 -21 24 -21 6 0 11 -7 11 -15 0 -8
-4 -15 -9 -15 -4 0 -8 -5 -8 -11 0 -5 4 -8 9 -5 5 4 11 0 14 -6 2 -7 8 -9 13
-5 5 4 4 11 -1 15 -6 4 -11 17 -11 30 -2 34 14 13 18 -23 3 -26 0 -30 -19 -28
-13 2 -23 -2 -23 -8 0 -5 4 -8 9 -4 5 3 12 1 16 -5 4 -6 10 -8 14 -6 4 3 8 -1
8 -9 0 -11 -5 -12 -21 -3 -12 6 -17 7 -13 2 4 -4 -2 -13 -14 -19 -19 -11 -19
-13 -5 -18 10 -4 15 -3 11 3 -3 6 -2 10 4 10 5 0 11 -3 14 -7 2 -5 2 -2 0 5
-1 7 2 10 8 7 5 -4 7 -16 3 -27 -3 -12 -2 -18 3 -15 5 4 10 0 10 -7 0 -15 -21
-15 -34 -1 -4 4 -1 5 7 0 12 -6 13 -5 3 5 -7 8 -16 11 -20 7 -4 -4 -1 -13 5
-19 17 -17 15 -28 -4 -28 -9 0 -12 5 -8 12 4 6 3 8 -4 4 -11 -6 -9 -36 3 -56
3 -6 1 -10 -6 -10 -7 0 -9 -3 -6 -6 4 -4 13 -2 21 5 10 8 16 9 19 1 3 -6 4 -5
2 2 -1 7 -7 12 -13 11 -5 -1 -13 5 -16 14 -5 12 -2 14 14 10 11 -3 23 0 27 5
4 7 1 8 -7 3 -9 -5 -11 -4 -6 4 4 6 12 9 17 5 5 -3 7 -10 3 -15 -3 -5 -7 -23
-9 -40 -3 -21 -1 -28 8 -22 9 5 9 3 0 -9 -7 -8 -10 -18 -6 -22 11 -11 12 -36
1 -36 -6 0 -4 -7 3 -17 12 -14 12 -15 0 -9 -10 7 -12 4 -7 -12 4 -12 2 -23 -5
-28 -8 -5 -9 -3 -4 7 7 12 6 12 -7 1 -11 -9 -18 -9 -21 -2 -3 6 -4 5 -2 -2 1
-7 8 -12 15 -10 7 2 10 -3 7 -11 -3 -8 -1 -20 5 -28 8 -11 9 -11 5 3 -3 9 0
22 8 28 12 10 13 8 9 -12 -10 -52 -13 -88 -5 -84 4 3 8 -1 8 -8 0 -15 -21 -15
-34 -1 -4 4 -2 5 6 0 10 -5 12 -4 7 4 -4 6 -12 9 -17 5 -5 -3 -7 -9 -4 -14 3
-4 2 -10 -2 -13 -5 -2 -3 -2 4 -1 6 2 11 -6 10 -17 -1 -19 -17 -28 -17 -9 0 6
-4 10 -8 10 -5 0 -9 -7 -9 -15 0 -8 4 -12 9 -9 4 3 8 0 8 -7 0 -10 3 -10 13 0
6 6 12 16 12 22 0 5 4 8 10 7 5 -2 8 -7 7 -13 -9 -24 -10 -65 -3 -61 4 3 8 -1
8 -8 0 -9 -9 -13 -24 -10 -12 2 -23 0 -23 -6 0 -6 5 -8 12 -4 8 5 9 2 5 -9 -7
-19 8 -32 19 -16 5 8 3 9 -6 4 -9 -5 -11 -4 -6 4 4 6 12 9 17 5 5 -3 7 -10 3
-15 -3 -5 -7 -23 -9 -40 -3 -21 -1 -28 8 -22 9 5 9 3 0 -9 -7 -8 -10 -18 -6
-22 11 -11 12 -36 1 -36 -6 0 -4 -7 3 -17 12 -14 12 -15 0 -9 -10 7 -12 4 -7
-12 4 -12 2 -23 -5 -28 -8 -5 -9 -3 -4 7 7 12 6 12 -7 1 -11 -9 -18 -9 -21 -2
-3 6 -4 5 -3 -2 2 -7 8 -12 14 -11 5 1 9 -11 8 -27 0 -17 -5 -28 -11 -26 -5 1
-9 10 -7 19 1 8 -2 18 -8 22 -6 4 -7 -1 -3 -11 4 -12 3 -15 -6 -10 -9 6 -9 3
1 -13 7 -12 18 -21 24 -21 6 0 11 -7 11 -15 0 -8 -4 -15 -8 -15 -4 0 -7 -8 -6
-19 1 -12 7 -17 19 -13 10 2 15 9 11 16 -10 15 -12 56 -3 51 15 -9 17 -67 3
-72 -7 -3 -10 -9 -7 -14 3 -5 9 -7 13 -5 4 3 8 -1 8 -9 0 -8 -4 -12 -8 -10 -4
3 -17 1 -30 -3 l-23 -9 22 -5 c15 -4 20 -2 15 5 -4 7 0 6 9 -1 9 -8 14 -20 11
-27 -4 -12 -7 -12 -20 0 -19 20 -29 19 -13 0 10 -13 9 -15 -9 -15 -15 0 -20 4
-16 12 4 7 1 6 -7 -2 -12 -14 -192 -15 -1608 -15 -1577 1 -1595 1 -1595 20 -1
11 -4 25 -7 30 -4 6 -3 17 2 25 5 9 5 19 -2 27 -7 9 -7 13 2 13 9 0 9 4 2 13
-7 8 -7 18 -2 27 5 9 5 19 -1 26 -7 8 -6 14 1 19 6 3 7 11 4 17 -8 13 -8 138
0 146 3 3 0 12 -7 20 -7 9 -8 17 -2 19 11 3 12 69 2 79 -4 4 -2 15 3 25 7 12
7 20 0 24 -7 4 -7 13 0 24 6 12 5 22 -2 29 -9 9 -9 12 1 12 10 0 11 3 3 13 -7
8 -7 18 -2 27 5 9 5 19 -2 27 -7 9 -7 13 2 13 9 0 9 4 2 13 -7 8 -7 18 -2 27
5 9 5 19 -2 27 -8 10 -7 13 3 13 10 0 10 3 1 12 -7 7 -8 17 -2 29 6 10 7 20 3
22 -13 8 -6 116 8 134 8 9 9 14 3 10 -7 -4 -14 2 -17 13 -3 11 -1 23 4 26 6 3
5 12 -3 22 -8 9 -9 17 -3 19 11 3 12 69 2 79 -4 4 -2 15 3 25 7 12 7 20 0 24
-7 4 -7 13 0 24 6 12 5 22 -2 29 -9 9 -9 12 1 12 10 0 11 3 3 13 -7 8 -7 18
-2 27 5 9 5 19 -2 27 -7 9 -7 13 2 13 9 0 9 4 2 13 -7 8 -7 18 -2 27 5 9 5 19
-2 27 -7 9 -7 13 2 13 9 0 9 4 2 13 -7 8 -7 18 -2 27 5 9 5 19 -1 26 -7 8 -6
14 1 19 6 3 7 11 4 17 -8 13 -8 138 0 146 3 3 0 12 -7 20 -7 9 -8 17 -2 19 11
3 12 69 2 79 -4 4 -2 15 3 25 7 12 7 20 0 24 -7 4 -7 13 0 24 6 12 5 22 -2 29
-9 9 -9 12 2 12 11 0 11 3 2 12 -7 7 -8 17 -2 29 7 11 7 20 0 24 -6 4 -7 13
-1 24 5 9 6 23 1 30 -4 7 -4 25 0 40 4 14 3 39 -1 54 -7 23 -5 28 6 23 12 -4
11 0 -2 21 -10 15 -12 24 -5 20 15 -10 15 -6 2 27 -5 14 -6 26 -1 26 7 0 8 40
1 48 -2 2 -3 39 -1 69 1 14 3 14 23 -3 14 -12 18 -13 10 -3 -13 18 -4 35 11
20 5 -5 16 -7 24 -4z m3206 -62 c-3 -9 -8 -14 -10 -11 -3 3 -2 9 2 15 9 16 15
13 8 -4z m4 -47 c-3 -8 -6 -5 -6 6 -1 11 2 17 5 13 3 -3 4 -12 1 -19z m-5
-143 c2 3 5 -1 5 -8 0 -20 -33 -15 -34 6 -2 14 1 16 11 8 7 -6 15 -9 18 -6z
m0 -130 c-2 -19 -8 -33 -12 -30 -5 3 -10 -1 -13 -7 -3 -7 -4 -1 -3 14 2 21 21
58 30 58 1 0 0 -16 -2 -35z m-24 -131 c5 -9 12 -15 15 -15 4 1 7 -1 7 -4 0 -3
0 -14 0 -26 0 -12 -4 -17 -11 -14 -6 4 -8 13 -5 21 3 8 -1 17 -8 20 -17 6 -30
34 -16 34 5 0 13 -7 18 -16z m26 -93 c-12 -8 -18 -44 -6 -37 5 3 9 -1 9 -8 0
-20 -30 -12 -33 9 -3 22 17 56 29 48 5 -3 5 -8 1 -12z m-1 -96 c-12 -32 -23
-14 -14 23 1 2 5 1 11 -3 5 -3 7 -12 3 -20z m0 -170 c-3 -13 -9 -22 -14 -19
-7 4 -7 22 0 52 1 2 5 1 10 -2 4 -3 6 -17 4 -31z m1 -54 c-12 -8 -18 -44 -6
-37 5 3 9 -1 9 -8 0 -20 -30 -12 -33 9 -3 22 17 56 29 48 5 -3 5 -8 1 -12z m1
-240 c0 -17 -4 -27 -11 -24 -13 5 -13 21 -1 41 12 17 13 15 12 -17z m0 -960
c0 -17 -4 -27 -11 -24 -13 5 -13 21 -1 41 12 17 13 15 12 -17z m435 -1433 c0
-6 7 -5 17 3 9 8 14 9 10 2 -4 -6 -1 -13 5 -16 10 -3 10 -8 2 -16 -9 -10 -14
-9 -25 2 -23 22 -25 23 -43 8 -19 -16 -34 -7 -18 12 13 16 52 20 52 5z m114
-5 c12 -7 15 -13 7 -17 -6 -4 -11 -2 -11 5 0 7 -3 9 -6 6 -4 -4 -1 -13 6 -22
19 -23 -6 -19 -30 5 -11 11 -20 15 -20 8 0 -6 -2 -9 -5 -6 -3 3 -3 12 1 21 6
18 27 18 58 0z"/>
<path d="M8894 13898 c-10 -13 -12 -17 -4 -11 8 6 18 12 23 12 8 1 11 11 4 17
-2 2 -12 -6 -23 -18z"/>
<path d="M8834 12820 c0 -13 4 -16 10 -10 7 7 7 13 0 20 -6 6 -10 3 -10 -10z"/>
<path d="M8819 10093 c-1 -5 -1 -11 0 -15 0 -5 -6 -8 -14 -8 -8 0 -15 -4 -15
-8 0 -10 30 -12 31 -3 0 3 2 14 4 24 2 9 1 17 -1 17 -2 0 -5 -3 -5 -7z"/>
<path d="M8806 10029 c2 -4 -4 -10 -13 -12 -17 -4 -17 -5 0 -6 19 -1 23 -16 7
-26 -5 -3 -10 -11 -10 -18 0 -16 30 29 35 51 2 11 -3 19 -10 19 -8 0 -12 -4
-9 -8z"/>
<path d="M8755 9961 c-3 -5 -2 -12 3 -15 5 -3 9 1 9 9 0 17 -3 19 -12 6z"/>
<path d="M8810 9961 c0 -6 4 -13 10 -16 6 -3 7 1 4 9 -7 18 -14 21 -14 7z"/>
<path d="M8778 9883 c5 -21 7 -23 10 -9 2 10 0 22 -6 28 -6 6 -7 0 -4 -19z"/>
<path d="M8755 9871 c-3 -5 -2 -12 3 -15 5 -3 9 1 9 9 0 17 -3 19 -12 6z"/>
<path d="M8778 9803 c5 -21 7 -23 10 -9 2 10 0 22 -6 28 -6 6 -7 0 -4 -19z"/>
<path d="M8755 9791 c-3 -5 -2 -12 3 -15 5 -3 9 1 9 9 0 17 -3 19 -12 6z"/>
<path d="M8802 9773 c-10 -4 -10 -8 -1 -20 10 -12 10 -17 -2 -25 -11 -8 -11
-9 4 -4 9 3 17 1 17 -4 0 -10 -15 -14 -34 -11 -5 1 -1 -10 9 -25 17 -26 17
-27 -1 -21 -17 6 -17 6 1 -9 20 -15 20 -15 1 -30 -11 -8 -15 -14 -9 -14 6 0
16 6 22 14 16 19 22 56 9 53 -6 -1 -13 4 -16 12 -2 8 0 11 6 7 15 -9 23 23 11
46 -8 16 -8 23 2 29 15 9 2 11 -19 2z"/>
<path d="M8770 9739 c0 -5 5 -7 10 -4 6 3 10 8 10 11 0 2 -4 4 -10 4 -5 0 -10
-5 -10 -11z"/>
<path d="M8756 9647 c3 -10 9 -15 12 -12 3 3 0 11 -7 18 -10 9 -11 8 -5 -6z"/>
<path d="M8754 9609 c-3 -6 -2 -15 3 -20 5 -5 9 -1 9 11 0 23 -2 24 -12 9z"/>
<path d="M8805 9586 c-17 -12 -18 -16 -5 -32 14 -16 13 -17 -5 -11 l-20 7 20
-16 c20 -15 20 -15 1 -30 -11 -8 -15 -14 -9 -14 6 0 16 6 22 14 16 19 22 56 9
53 -6 -1 -13 4 -16 12 -2 8 0 11 6 7 5 -3 12 1 16 9 7 18 5 19 -19 1z"/>
<path d="M8810 9481 c0 -6 4 -13 10 -16 6 -3 7 1 4 9 -7 18 -14 21 -14 7z"/>
<path d="M8760 9460 c-9 -6 -10 -10 -3 -10 6 0 15 5 18 10 8 12 4 12 -15 0z"/>
<path d="M8781 9434 c0 -11 3 -14 6 -6 3 7 2 16 -1 19 -3 4 -6 -2 -5 -13z"/>
<path d="M8764 9359 c-4 -7 -3 -9 4 -5 5 3 13 0 15 -6 4 -9 6 -10 6 -1 1 17
-16 25 -25 12z"/>
<path d="M8774 9210 c0 -13 4 -16 10 -10 7 7 7 13 0 20 -6 6 -10 3 -10 -10z"/>
<path d="M8777 9129 c4 -13 8 -18 11 -10 2 7 -1 18 -6 23 -8 8 -9 4 -5 -13z"/>
<path d="M8809 9135 c-1 -3 -2 -10 -3 -15 0 -6 -8 -15 -16 -20 -8 -5 -10 -10
-4 -10 6 0 17 7 24 15 7 8 9 15 4 15 -5 0 -2 5 6 10 10 6 11 10 3 10 -7 0 -14
-2 -14 -5z"/>
<path d="M8810 9081 c0 -6 4 -13 10 -16 6 -3 7 1 4 9 -7 18 -14 21 -14 7z"/>
<path d="M8773 9051 c0 -11 5 -18 9 -15 4 3 5 11 1 19 -7 21 -12 19 -10 -4z"/>
<path d="M8775 8960 c3 -5 8 -10 11 -10 2 0 4 5 4 10 0 6 -5 10 -11 10 -5 0
-7 -4 -4 -10z"/>
<path d="M8795 8940 c-4 -6 -1 -18 7 -27 11 -15 11 -16 -7 -10 l-20 7 20 -16
c20 -15 20 -15 1 -30 -11 -8 -15 -14 -9 -14 6 0 16 6 22 14 16 19 22 56 9 53
-6 -1 -13 4 -16 12 -3 8 0 11 7 7 6 -4 11 -2 11 3 0 14 -17 14 -25 1z"/>
<path d="M8810 8841 c0 -6 4 -13 10 -16 6 -3 7 1 4 9 -7 18 -14 21 -14 7z"/>
<path d="M8760 8820 c-9 -6 -10 -10 -3 -10 6 0 15 5 18 10 8 12 4 12 -15 0z"/>
<path d="M8781 8794 c0 -11 3 -14 6 -6 3 7 2 16 -1 19 -3 4 -6 -2 -5 -13z"/>
<path d="M8764 8719 c-4 -7 -3 -9 4 -5 5 3 13 0 15 -6 4 -9 6 -10 6 -1 1 17
-16 25 -25 12z"/>
<path d="M8794 8599 c-9 -16 2 -22 21 -11 15 8 16 10 1 15 -8 3 -18 2 -22 -4z"/>
<path d="M8800 8555 c-7 -8 -16 -12 -21 -9 -5 3 -9 0 -9 -5 0 -6 3 -11 8 -11
12 1 58 40 46 40 -6 0 -17 -7 -24 -15z"/>
<path d="M8804 8492 c21 -25 12 -30 -14 -7 -14 13 -16 12 -16 -5 0 -10 4 -16
9 -13 4 2 14 -1 22 -7 8 -7 15 -9 16 -4 0 5 2 17 4 27 2 11 1 16 -2 13 -4 -3
-13 0 -22 6 -10 8 -9 4 3 -10z"/>
<path d="M8797 8440 c10 -11 9 -18 -5 -34 -16 -20 -16 -20 1 -7 10 8 17 9 17
3 0 -6 -4 -14 -10 -17 -5 -3 -10 -11 -10 -18 0 -17 31 30 35 54 3 12 2 19 -2
15 -3 -3 -13 0 -22 6 -13 10 -14 10 -4 -2z"/>
<path d="M8750 8437 c0 -2 6 -10 14 -16 11 -9 16 -9 22 1 4 7 4 10 -1 6 -4 -4
-14 -3 -22 3 -7 6 -13 9 -13 6z"/>
<path d="M8740 8406 c0 -2 8 -10 18 -17 15 -13 16 -12 3 4 -13 16 -21 21 -21
13z"/>
<path d="M8810 8361 c0 -6 4 -13 10 -16 6 -3 7 1 4 9 -7 18 -14 21 -14 7z"/>
<path d="M8756 8322 c-3 -5 1 -9 9 -9 8 0 12 4 9 9 -3 4 -7 8 -9 8 -2 0 -6 -4
-9 -8z"/>
<path d="M8774 8250 c0 -13 4 -16 10 -10 7 7 7 13 0 20 -6 6 -10 3 -10 -10z"/>
<path d="M8777 8169 c4 -13 8 -18 11 -10 2 7 -1 18 -6 23 -8 8 -9 4 -5 -13z"/>
<path d="M8809 8175 c-1 -3 -2 -10 -3 -15 0 -6 -8 -15 -16 -20 -8 -5 -10 -10
-4 -10 6 0 17 7 24 15 7 8 9 15 4 15 -5 0 -2 5 6 10 10 6 11 10 3 10 -7 0 -14
-2 -14 -5z"/>
<path d="M8810 8121 c0 -6 4 -13 10 -16 6 -3 7 1 4 9 -7 18 -14 21 -14 7z"/>
<path d="M8773 8091 c0 -11 5 -18 9 -15 4 3 5 11 1 19 -7 21 -12 19 -10 -4z"/>
<path d="M8775 8000 c3 -5 8 -10 11 -10 2 0 4 5 4 10 0 6 -5 10 -11 10 -5 0
-7 -4 -4 -10z"/>
<path d="M8795 7980 c-4 -6 -1 -18 7 -27 11 -15 11 -16 -7 -10 l-20 7 20 -16
c20 -15 20 -15 1 -30 -11 -8 -15 -14 -9 -14 6 0 16 6 22 14 16 19 22 56 9 53
-6 -1 -13 4 -16 12 -3 8 0 11 7 7 6 -4 11 -2 11 3 0 14 -17 14 -25 1z"/>
<path d="M8810 7881 c0 -6 4 -13 10 -16 6 -3 7 1 4 9 -7 18 -14 21 -14 7z"/>
<path d="M8760 7860 c-9 -6 -10 -10 -3 -10 6 0 15 5 18 10 8 12 4 12 -15 0z"/>
<path d="M8781 7834 c0 -11 3 -14 6 -6 3 7 2 16 -1 19 -3 4 -6 -2 -5 -13z"/>
<path d="M8764 7759 c-4 -7 -3 -9 4 -5 5 3 13 0 15 -6 4 -9 6 -10 6 -1 1 17
-16 25 -25 12z"/>
<path d="M8794 7639 c-9 -16 2 -22 21 -11 15 8 16 10 1 15 -8 3 -18 2 -22 -4z"/>
<path d="M8800 7595 c-7 -8 -16 -12 -21 -9 -5 3 -9 0 -9 -5 0 -6 3 -11 8 -11
12 1 58 40 46 40 -6 0 -17 -7 -24 -15z"/>
<path d="M8804 7532 c21 -25 12 -30 -14 -7 -14 13 -16 12 -16 -5 0 -10 4 -16
9 -13 4 2 14 -1 22 -7 8 -7 15 -9 16 -4 0 5 2 17 4 27 2 11 1 16 -2 13 -4 -3
-13 0 -22 6 -10 8 -9 4 3 -10z"/>
<path d="M8797 7480 c10 -11 9 -18 -5 -34 -16 -20 -16 -20 1 -7 10 8 17 9 17
3 0 -6 -4 -14 -10 -17 -5 -3 -10 -11 -10 -18 0 -17 31 30 35 54 3 12 2 19 -2
15 -3 -3 -13 0 -22 6 -13 10 -14 10 -4 -2z"/>
<path d="M8750 7477 c0 -2 6 -10 14 -16 11 -9 16 -9 22 1 4 7 4 10 -1 6 -4 -4
-14 -3 -22 3 -7 6 -13 9 -13 6z"/>
<path d="M8740 7446 c0 -2 8 -10 18 -17 15 -13 16 -12 3 4 -13 16 -21 21 -21
13z"/>
<path d="M8810 7401 c0 -6 4 -13 10 -16 6 -3 7 1 4 9 -7 18 -14 21 -14 7z"/>
<path d="M8756 7362 c-3 -5 1 -9 9 -9 8 0 12 4 9 9 -3 4 -7 8 -9 8 -2 0 -6 -4
-9 -8z"/>
<path d="M8774 7290 c0 -13 4 -16 10 -10 7 7 7 13 0 20 -6 6 -10 3 -10 -10z"/>
<path d="M8777 7209 c4 -13 8 -18 11 -10 2 7 -1 18 -6 23 -8 8 -9 4 -5 -13z"/>
<path d="M8809 7215 c-1 -3 -2 -10 -3 -15 0 -6 -8 -15 -16 -20 -8 -5 -10 -10
-4 -10 6 0 17 7 24 15 7 8 9 15 4 15 -5 0 -2 5 6 10 10 6 11 10 3 10 -7 0 -14
-2 -14 -5z"/>
<path d="M8810 7161 c0 -6 4 -13 10 -16 6 -3 7 1 4 9 -7 18 -14 21 -14 7z"/>
<path d="M8773 7131 c0 -11 5 -18 9 -15 4 3 5 11 1 19 -7 21 -12 19 -10 -4z"/>
<path d="M8775 7040 c3 -5 8 -10 11 -10 2 0 4 5 4 10 0 6 -5 10 -11 10 -5 0
-7 -4 -4 -10z"/>
<path d="M8795 7020 c-4 -6 -1 -18 7 -27 11 -15 11 -16 -7 -10 l-20 7 20 -16
c20 -15 20 -15 1 -30 -11 -8 -15 -14 -9 -14 6 0 16 6 22 14 16 19 22 56 9 53
-6 -1 -13 4 -16 12 -3 8 0 11 7 7 6 -4 11 -2 11 3 0 14 -17 14 -25 1z"/>
<path d="M8810 6921 c0 -6 4 -13 10 -16 6 -3 7 1 4 9 -7 18 -14 21 -14 7z"/>
<path d="M8760 6900 c-9 -6 -10 -10 -3 -10 6 0 15 5 18 10 8 12 4 12 -15 0z"/>
<path d="M8796 6898 c5 -7 9 -16 9 -20 0 -11 19 -11 22 -1 2 4 -6 14 -18 21
-17 11 -20 11 -13 0z"/>
<path d="M8756 6861 c-3 -5 1 -14 8 -20 10 -9 16 -9 21 -1 4 6 4 14 1 17 -3 4
-6 1 -6 -6 0 -7 -5 -9 -10 -6 -6 4 -8 11 -5 16 4 5 4 9 1 9 -3 0 -7 -4 -10 -9z"/>
<path d="M8806 6839 c2 -4 -2 -10 -8 -12 -8 -4 -9 -6 -2 -6 6 -1 17 5 23 12 8
10 7 14 -4 14 -8 0 -12 -4 -9 -8z"/>
<path d="M5746 3880 c5 -8 9 -18 9 -22 0 -3 3 -9 7 -13 3 -4 5 0 4 9 -1 9 -8
22 -16 29 -10 10 -11 9 -4 -3z"/>
<path d="M5854 3882 c4 -3 14 -7 22 -8 9 -1 13 0 10 4 -4 3 -14 7 -22 8 -9 1
-13 0 -10 -4z"/>
<path d="M5976 3873 c-6 -14 -5 -15 5 -6 7 7 10 15 7 18 -3 3 -9 -2 -12 -12z"/>
<path d="M6094 3882 c4 -3 14 -7 22 -8 9 -1 13 0 10 4 -4 3 -14 7 -22 8 -9 1
-13 0 -10 -4z"/>
<path d="M6216 3873 c-6 -14 -5 -15 5 -6 7 7 10 15 7 18 -3 3 -9 -2 -12 -12z"/>
<path d="M6479 3888 c-7 -23 -4 -35 7 -35 9 0 11 4 4 12 -5 7 -7 15 -3 18 3 4
3 7 0 7 -4 0 -7 -1 -8 -2z"/>
<path d="M6514 3875 c3 -23 12 -26 13 -5 1 11 -2 20 -7 20 -4 0 -7 -7 -6 -15z"/>
<path d="M6639 3888 c-7 -23 -4 -35 7 -35 9 0 11 4 4 12 -5 7 -7 15 -3 18 3 4
3 7 0 7 -4 0 -7 -1 -8 -2z"/>
<path d="M6674 3875 c3 -23 12 -26 13 -5 1 11 -2 20 -7 20 -4 0 -7 -7 -6 -15z"/>
<path d="M6814 3882 c4 -3 14 -7 22 -8 9 -1 13 0 10 4 -4 3 -14 7 -22 8 -9 1
-13 0 -10 -4z"/>
<path d="M6936 3873 c-6 -14 -5 -15 5 -6 7 7 10 15 7 18 -3 3 -9 -2 -12 -12z"/>
<path d="M7054 3882 c4 -3 14 -7 22 -8 9 -1 13 0 10 4 -4 3 -14 7 -22 8 -9 1
-13 0 -10 -4z"/>
<path d="M7176 3873 c-6 -14 -5 -15 5 -6 7 7 10 15 7 18 -3 3 -9 -2 -12 -12z"/>
<path d="M7439 3888 c-7 -23 -4 -35 7 -35 9 0 11 4 4 12 -5 7 -7 15 -3 18 3 4
3 7 0 7 -4 0 -7 -1 -8 -2z"/>
<path d="M7474 3875 c3 -23 12 -26 13 -5 1 11 -2 20 -7 20 -4 0 -7 -7 -6 -15z"/>
<path d="M7599 3888 c-7 -23 -4 -35 7 -35 9 0 11 4 4 12 -5 7 -7 15 -3 18 3 4
3 7 0 7 -4 0 -7 -1 -8 -2z"/>
<path d="M7634 3875 c3 -23 12 -26 13 -5 1 11 -2 20 -7 20 -4 0 -7 -7 -6 -15z"/>
<path d="M7774 3882 c4 -3 14 -7 22 -8 9 -1 13 0 10 4 -4 3 -14 7 -22 8 -9 1
-13 0 -10 -4z"/>
<path d="M7896 3873 c-6 -14 -5 -15 5 -6 7 7 10 15 7 18 -3 3 -9 -2 -12 -12z"/>
<path d="M8014 3882 c4 -3 14 -7 22 -8 9 -1 13 0 10 4 -4 3 -14 7 -22 8 -9 1
-13 0 -10 -4z"/>
<path d="M8136 3873 c-6 -14 -5 -15 5 -6 7 7 10 15 7 18 -3 3 -9 -2 -12 -12z"/>
<path d="M8253 3873 c0 -9 4 -10 14 -2 7 6 13 12 13 14 0 1 -6 2 -13 2 -8 0
-14 -6 -14 -14z"/>
<path d="M8399 3888 c-7 -23 -4 -35 7 -35 9 0 11 4 4 12 -5 7 -7 15 -3 18 3 4
3 7 0 7 -4 0 -7 -1 -8 -2z"/>
<path d="M8434 3875 c3 -23 12 -26 13 -5 1 11 -2 20 -7 20 -4 0 -7 -7 -6 -15z"/>
<path d="M8559 3888 c-7 -23 -4 -35 7 -35 9 0 11 4 4 12 -5 7 -7 15 -3 18 3 4
3 7 0 7 -4 0 -7 -1 -8 -2z"/>
<path d="M8594 3875 c3 -23 12 -26 13 -5 1 11 -2 20 -7 20 -4 0 -7 -7 -6 -15z"/>
<path d="M8686 3881 c-3 -5 1 -11 9 -14 9 -4 12 -1 8 9 -6 16 -10 17 -17 5z"/>
<path d="M8770 3881 c0 -7 -4 -10 -9 -6 -10 6 -24 -11 -27 -34 -2 -8 6 -5 20
8 12 12 26 18 29 14 10 -10 8 -25 -2 -19 -5 3 -14 -1 -21 -10 -10 -12 -11 -17
-1 -27 7 -7 12 -7 11 -2 -4 21 0 36 9 31 15 -10 6 -39 -14 -46 -17 -6 -17 -7
-2 -13 9 -3 14 -12 11 -20 -3 -8 2 -20 11 -27 13 -11 14 -10 9 4 -4 11 -2 16
6 14 7 -2 15 3 17 10 3 9 -1 12 -12 10 -10 -2 -20 3 -22 10 -3 8 2 10 14 6 15
-5 15 -4 3 5 -13 9 -13 11 0 11 12 0 12 2 2 9 -19 12 -19 13 1 41 21 30 22 40
2 40 -8 0 -15 -5 -15 -11 0 -5 5 -7 12 -3 7 5 8 3 3 -6 -6 -10 -11 -9 -22 5
-7 11 -13 13 -13 6z"/>
<path d="M5786 3858 c3 -4 9 -8 15 -8 5 0 9 4 9 8 0 5 -7 9 -15 9 -8 0 -12 -4
-9 -9z"/>
<path d="M6026 3858 c3 -4 9 -8 15 -8 5 0 9 4 9 8 0 5 -7 9 -15 9 -8 0 -12 -4
-9 -9z"/>
<path d="M6266 3858 c3 -4 9 -8 15 -8 5 0 9 4 9 8 0 5 -7 9 -15 9 -8 0 -12 -4
-9 -9z"/>
<path d="M6746 3858 c3 -4 9 -8 15 -8 5 0 9 4 9 8 0 5 -7 9 -15 9 -8 0 -12 -4
-9 -9z"/>
<path d="M6986 3858 c3 -4 9 -8 15 -8 5 0 9 4 9 8 0 5 -7 9 -15 9 -8 0 -12 -4
-9 -9z"/>
<path d="M7226 3858 c3 -4 9 -8 15 -8 5 0 9 4 9 8 0 5 -7 9 -15 9 -8 0 -12 -4
-9 -9z"/>
<path d="M7309 3843 l-24 -28 28 24 c25 23 32 31 24 31 -2 0 -14 -12 -28 -27z"/>
<path d="M7706 3858 c3 -4 9 -8 15 -8 5 0 9 4 9 8 0 5 -7 9 -15 9 -8 0 -12 -4
-9 -9z"/>
<path d="M7946 3858 c3 -4 9 -8 15 -8 5 0 9 4 9 8 0 5 -7 9 -15 9 -8 0 -12 -4
-9 -9z"/>
<path d="M8186 3858 c3 -4 9 -8 15 -8 5 0 9 4 9 8 0 5 -7 9 -15 9 -8 0 -12 -4
-9 -9z"/>
<path d="M5674 3840 c0 -13 4 -16 10 -10 7 7 7 13 0 20 -6 6 -10 3 -10 -10z"/>
<path d="M6096 3847 c3 -10 9 -15 12 -12 3 3 0 11 -7 18 -10 9 -11 8 -5 -6z"/>
<path d="M6813 3845 c0 -8 4 -12 9 -9 5 3 6 10 3 15 -9 13 -12 11 -12 -6z"/>
<path d="M7053 3845 c0 -8 4 -12 9 -9 5 3 6 10 3 15 -9 13 -12 11 -12 -6z"/>
<path d="M8019 3848 c15 -21 31 -23 31 -6 0 6 -3 8 -7 5 -3 -4 -13 -1 -22 6
-14 11 -14 10 -2 -5z"/>
<path d="M5710 3841 c0 -6 4 -13 10 -16 6 -3 7 1 4 9 -7 18 -14 21 -14 7z"/>
<path d="M5877 3835 c-4 -8 -3 -16 1 -19 4 -3 9 4 9 15 2 23 -3 25 -10 4z"/>
<path d="M6433 3835 c0 -8 4 -12 9 -9 5 3 6 10 3 15 -9 13 -12 11 -12 -6z"/>
<path d="M6590 3841 c0 -6 4 -13 10 -16 6 -3 7 1 4 9 -7 18 -14 21 -14 7z"/>
<path d="M6933 3835 c0 -8 4 -12 9 -9 5 3 6 10 3 15 -9 13 -12 11 -12 -6z"/>
<path d="M7173 3835 c0 -8 4 -12 9 -9 5 3 6 10 3 15 -9 13 -12 11 -12 -6z"/>
<path d="M7376 3838 c3 -5 10 -6 15 -3 13 9 11 12 -6 12 -8 0 -12 -4 -9 -9z"/>
<path d="M7797 3835 c-4 -8 -3 -16 1 -19 4 -3 9 4 9 15 2 23 -3 25 -10 4z"/>
<path d="M7886 3842 c-3 -5 1 -9 9 -9 8 0 12 4 9 9 -3 4 -7 8 -9 8 -2 0 -6 -4
-9 -8z"/>
<path d="M7979 3833 c-13 -16 -12 -17 4 -4 9 7 17 15 17 17 0 8 -8 3 -21 -13z"/>
<path d="M8319 3833 c-13 -16 -12 -17 4 -4 9 7 17 15 17 17 0 8 -8 3 -21 -13z"/>
<path d="M7354 3826 c1 -8 5 -18 8 -22 4 -3 5 1 4 10 -1 8 -5 18 -8 22 -4 3
-5 -1 -4 -10z"/>
<path d="M8073 3825 c0 -8 4 -12 9 -9 5 3 6 10 3 15 -9 13 -12 11 -12 -6z"/>
<path d="M5590 3815 c5 -7 6 -16 2 -21 -4 -5 -3 -5 2 -1 15 12 15 34 0 34 -9
0 -11 -4 -4 -12z"/>
<path d="M6119 3828 c-5 -18 -6 -38 -1 -34 7 8 12 36 6 36 -2 0 -4 -1 -5 -2z"/>
<path d="M6713 3815 c0 -8 4 -12 9 -9 5 3 6 10 3 15 -9 13 -12 11 -12 -6z"/>
<path d="M8387 3819 c7 -7 15 -10 18 -7 3 3 -2 9 -12 12 -14 6 -15 5 -6 -5z"/>
<path d="M7470 3817 c0 -2 6 -10 14 -16 11 -9 16 -9 22 1 4 7 4 10 -1 6 -4 -4
-14 -3 -22 3 -7 6 -13 9 -13 6z"/>
<path d="M8035 3811 c-3 -5 -2 -12 3 -15 5 -3 9 1 9 9 0 17 -3 19 -12 6z"/>
<path d="M8732 3800 c0 -14 2 -19 5 -12 2 6 2 18 0 25 -3 6 -5 1 -5 -13z"/>
<path d="M5696 3798 c3 -5 10 -6 15 -3 13 9 11 12 -6 12 -8 0 -12 -4 -9 -9z"/>
<path d="M5987 3799 c7 -7 15 -10 18 -7 3 3 -2 9 -12 12 -14 6 -15 5 -6 -5z"/>
<path d="M6500 3806 c0 -2 8 -10 18 -17 15 -13 16 -12 3 4 -13 16 -21 21 -21
13z"/>
<path d="M6679 3793 c-13 -16 -12 -17 4 -4 9 7 17 15 17 17 0 8 -8 3 -21 -13z"/>
<path d="M6893 3791 c0 -11 5 -18 9 -15 4 3 5 11 1 19 -7 21 -12 19 -10 -4z"/>
<path d="M6937 3795 c-4 -8 -3 -16 1 -19 4 -3 9 4 9 15 2 23 -3 25 -10 4z"/>
<path d="M7133 3791 c0 -11 5 -18 9 -15 4 3 5 11 1 19 -7 21 -12 19 -10 -4z"/>
<path d="M7177 3795 c-4 -8 -3 -16 1 -19 4 -3 9 4 9 15 2 23 -3 25 -10 4z"/>
<path d="M7380 3806 c0 -2 8 -10 18 -17 15 -13 16 -12 3 4 -13 16 -21 21 -21
13z"/>
<path d="M7977 3795 c-4 -8 -3 -16 1 -19 4 -3 9 4 9 15 2 23 -3 25 -10 4z"/>
<path d="M8140 3806 c0 -2 8 -10 18 -17 15 -13 16 -12 3 4 -13 16 -21 21 -21
13z"/>
<path d="M6053 3785 c0 -8 4 -12 9 -9 5 3 6 10 3 15 -9 13 -12 11 -12 -6z"/>
<path d="M6335 3791 c-3 -5 -2 -12 3 -15 5 -3 9 1 9 9 0 17 -3 19 -12 6z"/>
<path d="M5735 3780 c3 -5 8 -10 11 -10 2 0 4 5 4 10 0 6 -5 10 -11 10 -5 0
-7 -4 -4 -10z"/>
<path d="M6254 3782 c4 -3 14 -7 22 -8 9 -1 13 0 10 4 -4 3 -14 7 -22 8 -9 1
-13 0 -10 -4z"/>
<path d="M6406 3782 c-3 -5 1 -9 9 -9 8 0 12 4 9 9 -3 4 -7 8 -9 8 -2 0 -6 -4
-9 -8z"/>
<path d="M6615 3780 c3 -5 8 -10 11 -10 2 0 4 5 4 10 0 6 -5 10 -11 10 -5 0
-7 -4 -4 -10z"/>
<path d="M6735 3780 c-3 -5 -1 -10 4 -10 6 0 11 5 11 10 0 6 -2 10 -4 10 -3 0
-8 -4 -11 -10z"/>
<path d="M6815 3780 c3 -5 8 -10 11 -10 2 0 4 5 4 10 0 6 -5 10 -11 10 -5 0
-7 -4 -4 -10z"/>
<path d="M6994 3782 c4 -3 14 -7 22 -8 9 -1 13 0 10 4 -4 3 -14 7 -22 8 -9 1
-13 0 -10 -4z"/>
<path d="M7055 3780 c3 -5 8 -10 11 -10 2 0 4 5 4 10 0 6 -5 10 -11 10 -5 0
-7 -4 -4 -10z"/>
<path d="M7234 3782 c4 -3 14 -7 22 -8 9 -1 13 0 10 4 -4 3 -14 7 -22 8 -9 1
-13 0 -10 -4z"/>
<path d="M7330 3780 c0 -5 5 -10 11 -10 5 0 7 5 4 10 -3 6 -8 10 -11 10 -2 0
-4 -4 -4 -10z"/>
<path d="M7450 3779 c0 -5 5 -7 10 -4 6 3 10 8 10 11 0 2 -4 4 -10 4 -5 0 -10
-5 -10 -11z"/>
<path d="M7655 3780 c3 -5 8 -10 11 -10 2 0 4 5 4 10 0 6 -5 10 -11 10 -5 0
-7 -4 -4 -10z"/>
<path d="M7855 3780 c3 -5 8 -10 11 -10 2 0 4 5 4 10 0 6 -5 10 -11 10 -5 0
-7 -4 -4 -10z"/>
<path d="M7930 3779 c0 -5 5 -7 10 -4 6 3 10 8 10 11 0 2 -4 4 -10 4 -5 0 -10
-5 -10 -11z"/>
<path d="M8375 3780 c5 -8 42 -6 50 1 2 3 -8 5 -25 5 -16 0 -27 -3 -25 -6z"/>
<path d="M8675 3780 c-3 -5 -1 -10 4 -10 6 0 11 5 11 10 0 6 -2 10 -4 10 -3 0
-8 -4 -11 -10z"/>
<path d="M8310 3760 c0 -5 5 -10 11 -10 5 0 7 5 4 10 -3 6 -8 10 -11 10 -2 0
-4 -4 -4 -10z"/>
<path d="M8149 3723 c-13 -16 -12 -17 4 -4 16 13 21 21 13 21 -2 0 -10 -8 -17
-17z"/>
<path d="M8754 3649 c0 -10 3 -16 7 -13 4 2 9 -2 12 -8 2 -7 4 -1 3 13 -1 28
-22 36 -22 8z"/>
<path d="M8773 3595 c0 -8 4 -12 9 -9 5 3 6 10 3 15 -9 13 -12 11 -12 -6z"/>
<path d="M8781 3571 c-10 -7 -7 -9 12 -8 14 1 23 5 20 10 -6 9 -15 9 -32 -2z"/>
<path d="M8754 3454 c1 -8 4 -15 7 -16 2 -2 3 -1 2 1 -2 2 2 9 7 16 7 8 5 12
-4 12 -8 0 -13 -6 -12 -13z"/>
<path d="M8714 3302 c4 -3 14 -7 22 -8 9 -1 13 0 10 4 -4 3 -14 7 -22 8 -9 1
-13 0 -10 -4z"/>
<path d="M8756 3281 c-3 -5 2 -15 12 -22 15 -12 16 -12 5 2 -7 9 -10 19 -6 22
3 4 4 7 0 7 -3 0 -8 -4 -11 -9z"/>
<path d="M8765 3219 c-4 -6 -4 -13 -1 -16 3 -4 6 -1 6 6 0 7 5 9 12 5 7 -4 8
-3 4 4 -9 15 -13 15 -21 1z"/>
<path d="M8773 3116 c0 -8 6 -12 14 -9 7 3 10 9 7 14 -8 14 -21 11 -21 -5z"/>
<path d="M8790 3096 c0 -2 7 -7 16 -10 8 -3 12 -2 9 4 -6 10 -25 14 -25 6z"/>
<path d="M8740 3085 c0 -2 6 -8 13 -14 10 -8 14 -7 14 2 0 8 -6 14 -14 14 -7
0 -13 -1 -13 -2z"/>
<path d="M8714 2982 c4 -3 14 -7 22 -8 9 -1 13 0 10 4 -4 3 -14 7 -22 8 -9 1
-13 0 -10 -4z"/>
<path d="M8756 2961 c-3 -5 2 -15 12 -22 15 -12 16 -12 5 2 -7 9 -10 19 -6 22
3 4 4 7 0 7 -3 0 -8 -4 -11 -9z"/>
<path d="M8767 2903 c-10 -10 -8 -33 3 -33 5 0 6 7 3 17 -5 12 -3 14 7 8 9 -5
11 -4 6 3 -8 14 -10 14 -19 5z"/>
<path d="M8756 2682 c-3 -4 4 -9 15 -9 23 -2 25 3 4 10 -8 4 -16 3 -19 -1z"/>
<path d="M8773 2601 c0 -11 5 -18 9 -15 4 3 5 11 1 19 -7 21 -12 19 -10 -4z"/>
<path d="M8740 2600 c-9 -6 -10 -10 -3 -10 6 0 15 5 18 10 8 12 4 12 -15 0z"/>
<path d="M8762 2538 c-15 -15 -15 -28 0 -28 6 0 8 3 5 7 -4 3 -2 12 4 20 14
16 7 17 -9 1z"/>
<path d="M8792 2409 c3 -8 1 -22 -4 -32 -8 -16 -12 -16 -26 -5 -15 12 -16 11
-3 -5 11 -13 17 -15 28 -6 21 18 28 2 7 -18 -9 -10 -21 -18 -25 -18 -23 0 -13
-10 12 -11 24 -1 35 6 27 19 -1 1 4 12 10 23 6 12 8 25 4 29 -4 3 -7 12 -7 18
0 5 -6 12 -14 15 -8 3 -12 -1 -9 -9z"/>
<path d="M8778 2253 c5 -10 7 -25 5 -33 -4 -13 -3 -13 6 -1 9 14 -2 51 -15 51
-2 0 -1 -8 4 -17z"/>
<path d="M8725 2220 c-3 -6 1 -7 9 -4 18 7 21 14 7 14 -6 0 -13 -4 -16 -10z"/>
<path d="M8806 2207 c3 -10 9 -15 12 -12 3 3 0 11 -7 18 -10 9 -11 8 -5 -6z"/>
<path d="M8770 2184 c-17 -9 -20 -14 -9 -14 9 0 22 7 29 15 15 18 13 18 -20
-1z"/>
<path d="M8730 2099 c0 -5 5 -7 10 -4 6 3 10 8 10 11 0 2 -4 4 -10 4 -5 0 -10
-5 -10 -11z"/>
<path d="M8773 2075 c0 -8 4 -12 9 -9 4 3 8 1 8 -4 0 -6 8 -13 17 -16 13 -5
11 0 -6 18 -29 30 -28 30 -28 11z"/>
<path d="M8746 2038 c3 -5 10 -6 15 -3 13 9 11 12 -6 12 -8 0 -12 -4 -9 -9z"/>
<path d="M8770 2000 c0 -5 5 -10 10 -10 6 0 10 5 10 10 0 6 -4 10 -10 10 -5 0
-10 -4 -10 -10z"/>
<path d="M8790 1970 c0 -6 4 -9 9 -6 5 4 12 1 14 -4 3 -6 4 -5 3 2 -3 15 -26
23 -26 8z"/>
<path d="M8795 1941 c6 -11 4 -13 -9 -8 -11 5 -15 3 -10 -5 5 -8 2 -9 -10 -5
-10 4 -15 3 -11 -4 4 -5 16 -7 27 -3 18 5 18 4 8 -16 -10 -18 -14 -19 -28 -8
-15 12 -16 11 -3 -5 11 -13 17 -15 28 -6 21 18 28 2 7 -18 -9 -10 -21 -18 -25
-18 -23 0 -13 -10 12 -11 16 -1 29 2 29 7 0 17 2 24 11 41 6 10 5 19 -1 23 -6
4 -8 10 -5 15 3 4 -3 14 -12 21 -14 12 -16 12 -8 0z"/>
<path d="M8756 1722 c-3 -4 4 -9 15 -9 23 -2 25 3 4 10 -8 4 -16 3 -19 -1z"/>
<path d="M8773 1645 c0 -7 9 -13 19 -12 10 1 18 2 18 4 0 1 -8 7 -18 12 -14 7
-19 6 -19 -4z"/>
<path d="M8740 1640 c-9 -6 -10 -10 -3 -10 6 0 15 5 18 10 8 12 4 12 -15 0z"/>
<path d="M9347 323 c3 -7 6 -13 8 -13 2 0 5 6 8 13 3 8 -1 14 -8 14 -7 0 -11
-6 -8 -14z"/>
<path d="M9227 14093 c3 -13 10 -23 17 -23 6 0 4 -5 -4 -10 -8 -5 -10 -10 -4
-10 6 0 14 3 18 8 4 4 13 7 19 7 5 0 12 7 14 15 4 13 3 13 -6 0 -9 -13 -11
-13 -11 2 0 9 -5 20 -11 24 -8 4 -9 -1 -4 -17 l6 -24 -20 25 c-20 24 -20 24
-14 3z"/>
<path d="M9710 14078 c0 -4 4 -8 9 -8 6 0 12 4 15 8 3 5 -1 9 -9 9 -8 0 -15
-4 -15 -9z"/>
<path d="M9750 14081 c0 -10 19 -25 25 -20 1 2 -3 10 -11 17 -8 7 -14 8 -14 3z"/>
<path d="M9850 14060 c0 -5 5 -10 11 -10 5 0 7 5 4 10 -3 6 -8 10 -11 10 -2 0
-4 -4 -4 -10z"/>
<path d="M9200 14050 c-9 -6 -10 -10 -3 -10 6 0 15 5 18 10 8 12 4 12 -15 0z"/>
<path d="M8976 14042 c-3 -5 1 -9 9 -9 8 0 12 4 9 9 -3 4 -7 8 -9 8 -2 0 -6
-4 -9 -8z"/>
<path d="M9895 14040 c3 -5 8 -10 11 -10 2 0 4 5 4 10 0 6 -5 10 -11 10 -5 0
-7 -4 -4 -10z"/>
<path d="M9018 14018 c20 -20 13 -32 -8 -13 -11 10 -23 15 -27 12 -3 -4 -1 -7
4 -7 6 0 10 -7 9 -15 -3 -18 -16 -32 -16 -17 0 7 -5 12 -11 12 -5 0 -7 -4 -4
-10 3 -5 1 -10 -4 -10 -6 0 -11 5 -11 10 0 6 -5 10 -10 10 -6 0 -4 -10 5 -23
8 -13 12 -28 8 -33 -5 -5 4 1 18 13 19 18 28 20 37 11 9 -9 16 -8 29 5 13 12
14 17 4 17 -10 0 -11 3 -2 14 13 15 27 16 51 1 13 -8 13 -7 1 8 -7 9 -17 14
-22 11 -5 -3 -9 0 -9 5 0 6 -5 11 -11 11 -5 0 -7 -4 -4 -10 3 -5 1 -10 -4 -10
-6 0 -11 5 -11 10 0 6 -5 10 -12 10 -9 0 -9 -3 0 -12z m8 -45 c-10 -11 -19 -7
-22 10 -2 15 0 16 12 6 8 -6 12 -14 10 -16z"/>
<path d="M8873 13952 c0 -12 5 -22 9 -22 11 0 10 12 -2 30 -7 12 -9 10 -7 -8z"/>
<path d="M8767 13859 c7 -7 15 -10 18 -7 3 3 -2 9 -12 12 -14 6 -15 5 -6 -5z"/>
<path d="M8754 13680 c0 -13 4 -16 10 -10 7 7 7 13 0 20 -6 6 -10 3 -10 -10z"/>
<path d="M8840 13686 c0 -10 -7 -13 -21 -11 -18 4 -19 2 -7 -12 11 -15 11 -16
-5 -10 -12 5 -16 3 -11 -5 5 -7 2 -9 -8 -6 -8 4 -15 0 -15 -7 0 -9 6 -11 16
-6 9 5 22 6 30 3 8 -3 11 0 7 7 -4 6 -1 14 8 17 18 7 28 31 16 39 -6 4 -10 -1
-10 -9z"/>
<path d="M8794 13607 c-4 -7 -4 -9 1 -5 4 4 13 1 19 -7 7 -10 16 -12 26 -5 17
11 11 19 -18 25 -12 2 -25 -2 -28 -8z"/>
<path d="M8785 13580 c-4 -6 -1 -9 6 -8 6 2 14 -3 17 -11 3 -9 0 -11 -8 -6 -8
5 -11 4 -6 -3 3 -5 3 -12 -1 -15 -5 -2 -3 -2 4 -1 6 2 17 -4 24 -12 9 -11 15
-12 23 -4 8 8 6 14 -7 21 -9 6 -15 14 -13 18 3 4 -4 12 -14 19 -13 7 -21 8
-25 2z m46 -47 c13 -16 12 -17 -3 -4 -17 13 -22 21 -14 21 2 0 10 -8 17 -17z"/>
<path d="M8755 13571 c-3 -5 -2 -12 3 -15 5 -3 9 1 9 9 0 17 -3 19 -12 6z"/>
<path d="M8810 13455 c-16 -19 -22 -65 -9 -65 6 0 7 -4 4 -10 -10 -16 1 -11
16 7 10 11 10 14 2 9 -7 -4 -13 -3 -13 2 0 5 11 14 25 20 30 14 32 28 6 41
-14 8 -22 7 -31 -4z m30 -15 c0 -5 -9 -14 -20 -20 -22 -12 -23 -10 -14 14 7
17 34 22 34 6z"/>
<path d="M8774 13370 c0 -13 4 -16 10 -10 7 7 7 13 0 20 -6 6 -10 3 -10 -10z"/>
<path d="M8814 13355 c-4 -8 -10 -12 -15 -9 -5 3 -9 0 -9 -5 0 -21 33 -6 38
17 3 17 -7 15 -14 -3z"/>
<path d="M8834 13300 c0 -13 4 -16 10 -10 7 7 7 13 0 20 -6 6 -10 3 -10 -10z"/>
<path d="M8777 13289 c4 -13 8 -18 11 -10 2 7 -1 18 -6 23 -8 8 -9 4 -5 -13z"/>
<path d="M8819 13250 c-1 -3 -1 -8 0 -12 0 -5 -7 -8 -16 -8 -17 -1 -17 -1 0
-11 9 -5 23 -7 30 -3 8 5 8 2 -2 -9 -7 -9 -17 -15 -21 -12 -5 3 -12 0 -16 -6
-4 -7 -3 -9 4 -5 6 3 13 2 16 -3 8 -13 -20 -21 -31 -10 -6 6 -10 4 -10 -5 0
-8 4 -13 9 -10 4 3 8 2 8 -3 0 -4 8 -18 18 -31 17 -21 18 -22 18 -3 0 11 -4
19 -9 18 -5 -1 -12 4 -14 11 -3 8 1 10 14 5 10 -3 15 -2 10 2 -4 5 0 17 10 27
9 10 13 18 8 18 -4 0 -1 8 6 17 13 15 11 16 -11 10 l-25 -6 23 17 c22 17 22
18 2 18 -11 0 -21 -3 -21 -6z"/>
<path d="M8773 13211 c0 -11 5 -18 9 -15 4 3 5 11 1 19 -7 21 -12 19 -10 -4z"/>
<path d="M8793 13099 c23 -13 22 -24 -5 -38 -16 -8 -17 -10 -4 -6 10 3 27 -2
36 -10 13 -12 20 -13 25 -5 4 6 -1 18 -11 25 -11 8 -15 15 -10 15 13 0 -26 29
-39 29 -5 0 -2 -4 8 -10z m38 -46 c13 -16 12 -17 -3 -4 -17 13 -22 21 -14 21
2 0 10 -8 17 -17z"/>
<path d="M8775 12943 c3 -3 -2 -14 -11 -24 -10 -11 -12 -19 -4 -24 6 -3 10 -3
9 2 -3 20 2 27 11 13 8 -12 9 -10 7 7 -2 12 -6 25 -10 28 -4 3 -5 2 -2 -2z"/>
<path d="M8810 12870 c-8 -15 -8 -18 3 -14 8 3 14 11 14 19 0 20 -4 19 -17 -5z"/>
<path d="M8778 12843 c5 -21 7 -23 10 -9 2 10 0 22 -6 28 -6 6 -7 0 -4 -19z"/>
<path d="M8755 12831 c-3 -5 -2 -12 3 -15 5 -3 9 1 9 9 0 17 -3 19 -12 6z"/>
<path d="M8785 12800 c-3 -5 -1 -10 4 -10 6 0 11 5 11 10 0 6 -2 10 -4 10 -3
0 -8 -4 -11 -10z"/>
<path d="M8770 12719 c0 -6 7 -9 16 -7 10 2 19 -3 22 -11 3 -9 0 -11 -8 -6 -9
6 -11 4 -5 -5 6 -9 4 -12 -7 -8 -8 4 -15 0 -15 -7 0 -10 11 -8 39 8 39 23 45
31 28 42 -5 3 -10 -1 -10 -11 0 -14 -2 -14 -16 -3 -20 16 -44 21 -44 8z"/>
<path d="M8800 12655 c-11 -13 -10 -15 4 -9 9 4 16 2 14 -4 -2 -5 0 -10 5 -11
20 -3 27 0 27 10 0 5 -4 8 -9 4 -6 -3 -14 2 -19 10 -8 15 -10 15 -22 0z"/>
<path d="M8785 12620 c-4 -6 -1 -9 6 -8 6 2 14 -3 17 -11 3 -9 0 -11 -8 -6 -8
5 -11 4 -6 -3 3 -5 3 -12 -1 -15 -5 -2 -3 -2 4 -1 6 2 17 -4 24 -12 9 -11 15
-12 23 -4 8 8 6 14 -7 21 -9 6 -15 14 -13 18 3 4 -4 12 -14 19 -13 7 -21 8
-25 2z m46 -47 c13 -16 12 -17 -3 -4 -17 13 -22 21 -14 21 2 0 10 -8 17 -17z"/>
<path d="M8755 12611 c-3 -5 -2 -12 3 -15 5 -3 9 1 9 9 0 17 -3 19 -12 6z"/>
<path d="M8810 12495 c-16 -19 -22 -65 -9 -65 6 0 7 -4 4 -10 -10 -16 1 -11
16 7 10 11 10 14 2 9 -7 -4 -13 -3 -13 2 0 5 11 14 25 20 30 14 32 28 6 41
-14 8 -22 7 -31 -4z m30 -15 c0 -5 -9 -14 -20 -20 -22 -12 -23 -10 -14 14 7
17 34 22 34 6z"/>
<path d="M8774 12410 c0 -13 4 -16 10 -10 7 7 7 13 0 20 -6 6 -10 3 -10 -10z"/>
<path d="M8814 12395 c-4 -8 -10 -12 -15 -9 -5 3 -9 0 -9 -5 0 -21 33 -6 38
17 3 17 -7 15 -14 -3z"/>
<path d="M8834 12340 c0 -13 4 -16 10 -10 7 7 7 13 0 20 -6 6 -10 3 -10 -10z"/>
<path d="M8777 12329 c4 -13 8 -18 11 -10 2 7 -1 18 -6 23 -8 8 -9 4 -5 -13z"/>
<path d="M8819 12290 c-1 -3 -1 -8 0 -12 0 -5 -7 -8 -16 -8 -14 -1 -12 -4 7
-15 24 -13 24 -16 1 -19 -5 0 -13 -5 -18 -10 -4 -5 -3 -6 4 -2 6 3 14 2 17 -3
8 -13 -20 -21 -31 -10 -6 6 -10 4 -10 -6 0 -8 3 -13 5 -10 3 3 12 -4 19 -15
11 -16 12 -24 3 -35 -12 -15 -6 -35 11 -35 5 0 9 5 9 11 0 5 -4 7 -10 4 -5 -3
-10 -2 -10 4 0 13 35 32 44 24 3 -3 6 -1 6 6 0 8 -6 11 -16 7 -9 -3 -12 -2 -9
4 4 6 1 9 -6 8 -6 -2 -14 3 -16 10 -3 8 1 10 13 5 11 -4 15 -3 10 5 -3 6 -2
13 3 17 6 3 8 -3 6 -15 -2 -11 0 -20 5 -20 17 0 19 17 5 36 -12 16 -11 22 3
38 16 18 16 19 -8 13 l-25 -6 23 17 c22 17 22 18 2 18 -11 0 -21 -3 -21 -6z"/>
<path d="M8773 12251 c0 -11 5 -18 9 -15 4 3 5 11 1 19 -7 21 -12 19 -10 -4z"/>
<path d="M8760 12160 c-12 -7 -10 -9 8 -7 12 0 22 5 22 9 0 11 -12 10 -30 -2z"/>
<path d="M8755 12121 c-3 -5 -2 -12 3 -15 5 -3 9 1 9 9 0 17 -3 19 -12 6z"/>
<path d="M8787 12099 c7 -7 15 -10 18 -7 3 3 -2 9 -12 12 -14 6 -15 5 -6 -5z"/>
<path d="M8755 12081 c-3 -5 -2 -12 3 -15 5 -3 9 1 9 9 0 17 -3 19 -12 6z"/>
<path d="M8760 5540 c-9 -6 -10 -10 -3 -10 6 0 15 5 18 10 8 12 4 12 -15 0z"/>
<path d="M8704 5442 c4 -3 14 -7 22 -8 9 -1 13 0 10 4 -4 3 -14 7 -22 8 -9 1
-13 0 -10 -4z"/>
<path d="M8770 5420 c0 -5 5 -10 11 -10 5 0 7 5 4 10 -3 6 -8 10 -11 10 -2 0
-4 -4 -4 -10z"/>
<path d="M8796 5378 c5 -7 2 -9 -8 -6 -8 4 -15 0 -15 -7 0 -10 5 -11 19 -4 20
11 24 29 7 29 -5 0 -7 -5 -3 -12z"/>
<path d="M8808 5359 c-21 -23 -6 -26 16 -3 9 8 16 17 16 20 0 9 -16 1 -32 -17z"/>
<path d="M8759 5313 c-12 -16 -12 -17 2 -6 9 7 19 10 22 6 4 -3 7 -1 7 5 0 17
-16 15 -31 -5z"/>
<path d="M8839 5293 c-13 -16 -12 -17 4 -4 9 7 17 15 17 17 0 8 -8 3 -21 -13z"/>
<path d="M8715 5289 c-4 -6 -5 -12 -2 -15 2 -3 7 2 10 11 7 17 1 20 -8 4z"/>
<path d="M10146 4062 c-3 -5 1 -9 9 -9 8 0 12 4 9 9 -3 4 -7 8 -9 8 -2 0 -6
-4 -9 -8z"/>
<path d="M10146 3582 c-3 -5 1 -9 9 -9 8 0 12 4 9 9 -3 4 -7 8 -9 8 -2 0 -6
-4 -9 -8z"/>
<path d="M4276 3398 c3 -5 10 -6 15 -3 13 9 11 12 -6 12 -8 0 -12 -4 -9 -9z"/>
<path d="M10146 3102 c-3 -5 1 -9 9 -9 8 0 12 4 9 9 -3 4 -7 8 -9 8 -2 0 -6
-4 -9 -8z"/>
<path d="M10146 2622 c-3 -5 1 -9 9 -9 8 0 12 4 9 9 -3 4 -7 8 -9 8 -2 0 -6
-4 -9 -8z"/>
<path d="M10146 2142 c-3 -5 1 -9 9 -9 8 0 12 4 9 9 -3 4 -7 8 -9 8 -2 0 -6
-4 -9 -8z"/>
<path d="M4276 2118 c3 -5 10 -6 15 -3 13 9 11 12 -6 12 -8 0 -12 -4 -9 -9z"/>
<path d="M10146 1662 c-3 -5 1 -9 9 -9 8 0 12 4 9 9 -3 4 -7 8 -9 8 -2 0 -6
-4 -9 -8z"/>
<path d="M10146 1182 c-3 -5 1 -9 9 -9 8 0 12 4 9 9 -3 4 -7 8 -9 8 -2 0 -6
-4 -9 -8z"/>
<path d="M4276 838 c3 -5 10 -6 15 -3 13 9 11 12 -6 12 -8 0 -12 -4 -9 -9z"/>
<path d="M10075 520 c-3 -5 -1 -10 4 -10 6 0 11 5 11 10 0 6 -2 10 -4 10 -3 0
-8 -4 -11 -10z"/>
<path d="M4440 440 c-9 -6 -10 -10 -3 -10 6 0 15 5 18 10 8 12 4 12 -15 0z"/>
<path d="M10014 442 c4 -3 14 -7 22 -8 9 -1 13 0 10 4 -4 3 -14 7 -22 8 -9 1
-13 0 -10 -4z"/>
<path d="M9930 400 c0 -5 5 -10 10 -10 6 0 10 5 10 10 0 6 -4 10 -10 10 -5 0
-10 -4 -10 -10z"/>
<path d="M9966 398 c3 -5 10 -6 15 -3 13 9 11 12 -6 12 -8 0 -12 -4 -9 -9z"/>
<path d="M9826 372 c-3 -6 -1 -14 5 -17 15 -10 25 3 12 16 -7 7 -13 7 -17 1z"/>
<path d="M9917 373 c-10 -9 -9 -23 1 -23 5 0 9 7 9 15 0 17 -1 18 -10 8z"/>
<path d="M4535 360 c3 -5 8 -10 11 -10 2 0 4 5 4 10 0 6 -5 10 -11 10 -5 0 -7
-4 -4 -10z"/>
<path d="M4474 342 c4 -3 14 -7 22 -8 9 -1 13 0 10 4 -4 3 -14 7 -22 8 -9 1
-13 0 -10 -4z"/>
<path d="M9851 332 c-14 -27 14 -25 36 2 l18 21 -24 -20 c-21 -18 -24 -18 -18
-2 8 23 0 22 -12 -1z"/>
<path d="M4735 331 c-3 -5 -2 -12 3 -15 5 -3 9 1 9 9 0 17 -3 19 -12 6z"/>
<path d="M4855 329 c-4 -6 -5 -12 -2 -15 2 -3 7 2 10 11 7 17 1 20 -8 4z"/>
<path d="M4975 331 c-3 -5 -2 -12 3 -15 5 -3 9 1 9 9 0 17 -3 19 -12 6z"/>
<path d="M5094 329 c-3 -6 -2 -15 3 -20 5 -5 9 -1 9 11 0 23 -2 24 -12 9z"/>
<path d="M5694 329 c-3 -6 -2 -15 3 -20 5 -5 9 -1 9 11 0 23 -2 24 -12 9z"/>
<path d="M5934 329 c-3 -6 -2 -15 3 -20 5 -5 9 -1 9 11 0 23 -2 24 -12 9z"/>
<path d="M6174 329 c-3 -6 -2 -15 3 -20 5 -5 9 -1 9 11 0 23 -2 24 -12 9z"/>
<path d="M6515 329 c-4 -6 -5 -12 -2 -15 2 -3 7 2 10 11 7 17 1 20 -8 4z"/>
<path d="M6675 331 c-3 -5 -2 -12 3 -15 5 -3 9 1 9 9 0 17 -3 19 -12 6z"/>
<path d="M6995 329 c-4 -6 -5 -12 -2 -15 2 -3 7 2 10 11 7 17 1 20 -8 4z"/>
<path d="M7155 331 c-3 -5 -2 -12 3 -15 5 -3 9 1 9 9 0 17 -3 19 -12 6z"/>
<path d="M7315 329 c-4 -6 -5 -12 -2 -15 2 -3 7 2 10 11 7 17 1 20 -8 4z"/>
<path d="M7635 330 c-4 -6 -11 -7 -17 -4 -7 4 -8 2 -4 -5 6 -9 11 -9 22 0 14
11 18 19 10 19 -3 0 -8 -5 -11 -10z"/>
<path d="M7686 325 c-18 -14 -18 -14 1 -12 11 0 20 7 20 14 0 7 -1 13 -1 13
-1 0 -9 -7 -20 -15z"/>
<path d="M7817 333 c-10 -9 -9 -23 1 -23 5 0 9 7 9 15 0 17 -1 18 -10 8z"/>
<path d="M7935 330 c-4 -6 -10 -8 -15 -5 -5 3 -11 1 -14 -4 -8 -13 22 -7 36 7
7 7 9 12 6 12 -4 0 -10 -5 -13 -10z"/>
<path d="M8055 329 c-4 -6 -5 -12 -2 -15 2 -3 7 2 10 11 7 17 1 20 -8 4z"/>
<path d="M8175 330 c-4 -6 -10 -8 -15 -5 -4 3 -14 -3 -21 -13 -12 -15 -12 -16
1 -6 8 6 22 10 31 9 9 -2 16 4 16 11 0 17 -4 18 -12 4z"/>
<path d="M8297 333 c-10 -9 -9 -23 1 -23 5 0 9 7 9 15 0 17 -1 18 -10 8z"/>
<path d="M8415 330 c-4 -6 -10 -8 -15 -5 -5 3 -11 1 -14 -4 -8 -13 22 -7 36 7
7 7 9 12 6 12 -4 0 -10 -5 -13 -10z"/>
<path d="M8655 329 c-4 -6 -5 -12 -2 -15 2 -3 7 2 10 11 7 17 1 20 -8 4z"/>
<path d="M9110 325 c-7 -9 -8 -15 -2 -15 5 0 12 7 16 15 3 8 4 15 2 15 -2 0
-9 -7 -16 -15z"/>
<path d="M9139 324 c-8 -10 -8 -14 0 -14 6 0 11 5 11 10 0 6 5 10 11 10 5 0 7
-4 4 -10 -3 -5 -2 -10 3 -10 6 0 12 6 15 13 7 18 -29 19 -44 1z"/>
<path d="M9415 310 c0 -15 -8 -30 -20 -37 -11 -7 -14 -12 -7 -13 6 0 22 10 34
22 14 14 23 18 26 10 2 -7 18 -19 35 -28 29 -14 30 -13 13 1 -11 8 -23 15 -26
15 -4 0 -6 13 -5 29 1 25 -2 28 -25 27 -21 0 -26 -5 -25 -26z m33 7 c8 -10 6
-13 -7 -13 -11 0 -17 6 -14 13 3 7 6 13 8 13 1 0 7 -6 13 -13z"/>
<path d="M4606 318 c3 -5 10 -6 15 -3 13 9 11 12 -6 12 -8 0 -12 -4 -9 -9z"/>
<path d="M5900 320 c-9 -6 -10 -10 -3 -10 6 0 15 5 18 10 8 12 4 12 -15 0z"/>
<path d="M6445 320 c-5 -8 42 -7 49 1 3 3 -6 5 -20 5 -14 0 -27 -3 -29 -6z"/>
<path d="M6564 322 c4 -3 14 -7 22 -8 9 -1 13 0 10 4 -4 3 -14 7 -22 8 -9 1
-13 0 -10 -4z"/>
<path d="M6726 318 c3 -5 10 -6 15 -3 13 9 11 12 -6 12 -8 0 -12 -4 -9 -9z"/>
<path d="M6875 321 c-3 -5 -2 -12 3 -15 5 -3 9 1 9 9 0 17 -3 19 -12 6z"/>
<path d="M7044 322 c4 -3 14 -7 22 -8 9 -1 13 0 10 4 -4 3 -14 7 -22 8 -9 1
-13 0 -10 -4z"/>
<path d="M7245 320 c-5 -8 42 -7 49 1 3 3 -6 5 -20 5 -14 0 -27 -3 -29 -6z"/>
<path d="M7356 313 c-6 -14 -5 -15 5 -6 7 7 10 15 7 18 -3 3 -9 -2 -12 -12z"/>
<path d="M7576 318 c3 -5 10 -6 15 -3 13 9 11 12 -6 12 -8 0 -12 -4 -9 -9z"/>
<path d="M7779 313 c-13 -16 -12 -17 4 -4 9 7 17 15 17 17 0 8 -8 3 -21 -13z"/>
<path d="M8796 322 c-3 -5 1 -9 9 -9 8 0 12 4 9 9 -3 4 -7 8 -9 8 -2 0 -6 -4
-9 -8z"/>
<path d="M8857 311 c-10 -14 -10 -14 4 -4 9 7 18 10 21 7 3 -3 8 -1 12 4 9 16
-24 9 -37 -7z"/>
<path d="M9020 319 c0 -5 5 -7 10 -4 6 3 10 8 10 11 0 2 -4 4 -10 4 -5 0 -10
-5 -10 -11z"/>
<path d="M5593 305 c0 -8 4 -12 9 -9 5 3 6 10 3 15 -9 13 -12 11 -12 -6z"/>
<path d="M8990 316 c0 -2 8 -10 18 -17 15 -13 16 -12 3 4 -13 16 -21 21 -21
13z"/>
<path d="M5473 303 c4 -3 1 -13 -6 -22 -11 -14 -10 -14 5 -2 16 12 16 31 1 31
-4 0 -3 -3 0 -7z"/>
<path d="M5546 302 c-3 -5 1 -9 9 -9 8 0 15 4 15 9 0 4 -4 8 -9 8 -6 0 -12 -4
-15 -8z"/>
<path d="M6640 300 c-9 -6 -10 -10 -3 -10 6 0 15 5 18 10 8 12 4 12 -15 0z"/>
<path d="M7120 300 c-9 -6 -10 -10 -3 -10 6 0 15 5 18 10 8 12 4 12 -15 0z"/>
<path d="M9035 301 c-9 -15 15 -25 28 -12 9 9 7 10 -7 5 -13 -5 -17 -4 -12 4
4 7 5 12 2 12 -3 0 -7 -4 -11 -9z"/>
<path d="M5976 287 c3 -10 9 -15 12 -12 3 3 0 11 -7 18 -10 9 -11 8 -5 -6z"/>
<path d="M6391 287 c-8 -10 -7 -14 2 -14 8 0 14 6 14 14 0 7 -1 13 -2 13 -2 0
-8 -6 -14 -13z"/>
<path d="M6673 285 c0 -8 4 -12 9 -9 5 3 6 10 3 15 -9 13 -12 11 -12 -6z"/>
<path d="M6995 291 c-3 -5 -2 -12 3 -15 5 -3 9 1 9 9 0 17 -3 19 -12 6z"/>
<path d="M7153 285 c0 -8 4 -12 9 -9 5 3 6 10 3 15 -9 13 -12 11 -12 -6z"/>
<path d="M7896 287 c3 -10 9 -15 12 -12 3 3 0 11 -7 18 -10 9 -11 8 -5 -6z"/>
<path d="M8376 287 c3 -10 9 -15 12 -12 3 3 0 11 -7 18 -10 9 -11 8 -5 -6z"/>
<path d="M8815 289 c-4 -6 -5 -12 -2 -15 2 -3 7 2 10 11 7 17 1 20 -8 4z"/>
<path d="M9481 297 c2 -1 13 -9 24 -17 19 -14 19 -14 6 3 -7 9 -18 17 -24 17
-6 0 -8 -1 -6 -3z"/>
<path d="M9830 296 c0 -2 8 -10 18 -17 15 -13 16 -12 3 4 -13 16 -21 21 -21
13z"/>
<path d="M4796 278 c3 -5 10 -6 15 -3 13 9 11 12 -6 12 -8 0 -12 -4 -9 -9z"/>
<path d="M4999 273 c-13 -16 -12 -17 4 -4 9 7 17 15 17 17 0 8 -8 3 -21 -13z"/>
<path d="M5070 278 c0 -4 4 -8 9 -8 6 0 12 4 15 8 3 5 -1 9 -9 9 -8 0 -15 -4
-15 -9z"/>
<path d="M5146 278 c3 -4 9 -8 15 -8 5 0 9 4 9 8 0 5 -7 9 -15 9 -8 0 -12 -4
-9 -9z"/>
<path d="M5220 286 c0 -2 8 -10 18 -17 15 -13 16 -12 3 4 -13 16 -21 21 -21
13z"/>
<path d="M5426 278 c3 -5 10 -6 15 -3 13 9 11 12 -6 12 -8 0 -12 -4 -9 -9z"/>
<path d="M5746 279 c4 -8 30 -6 38 2 3 3 -5 5 -19 5 -13 0 -22 -3 -19 -7z"/>
<path d="M5875 281 c-3 -5 -2 -12 3 -15 5 -3 9 1 9 9 0 17 -3 19 -12 6z"/>
<path d="M5906 282 c-3 -5 1 -9 9 -9 8 0 12 4 9 9 -3 4 -7 8 -9 8 -2 0 -6 -4
-9 -8z"/>
<path d="M6226 279 c4 -8 30 -6 38 2 3 3 -5 5 -19 5 -13 0 -22 -3 -19 -7z"/>
<path d="M6355 281 c-3 -5 -2 -12 3 -15 5 -3 9 1 9 9 0 17 -3 19 -12 6z"/>
<path d="M6454 275 c3 -23 12 -26 13 -5 1 11 -2 20 -7 20 -4 0 -7 -7 -6 -15z"/>
<path d="M6490 279 c0 -5 5 -7 10 -4 6 3 10 8 10 11 0 2 -4 4 -10 4 -5 0 -10
-5 -10 -11z"/>
<path d="M6573 270 c1 -21 10 -18 13 5 1 8 -2 15 -6 15 -5 0 -8 -9 -7 -20z"/>
<path d="M6855 280 c3 -5 8 -10 11 -10 2 0 4 5 4 10 0 6 -5 10 -11 10 -5 0 -7
-4 -4 -10z"/>
<path d="M7053 270 c1 -21 10 -18 13 5 1 8 -2 15 -6 15 -5 0 -8 -9 -7 -20z"/>
<path d="M7254 275 c3 -23 12 -26 13 -5 1 11 -2 20 -7 20 -4 0 -7 -7 -6 -15z"/>
<path d="M7290 279 c0 -5 5 -7 10 -4 6 3 10 8 10 11 0 2 -4 4 -10 4 -5 0 -10
-5 -10 -11z"/>
<path d="M7355 279 c-3 -4 2 -6 10 -5 21 3 28 13 10 13 -9 0 -18 -4 -20 -8z"/>
<path d="M7670 285 c0 -7 30 -13 34 -7 3 4 -4 9 -15 9 -10 1 -19 0 -19 -2z"/>
<path d="M7795 281 c-3 -5 -2 -12 3 -15 5 -3 9 1 9 9 0 17 -3 19 -12 6z"/>
<path d="M7826 282 c-3 -5 1 -9 9 -9 8 0 12 4 9 9 -3 4 -7 8 -9 8 -2 0 -6 -4
-9 -8z"/>
<path d="M8146 279 c4 -8 30 -6 38 2 3 3 -5 5 -19 5 -13 0 -22 -3 -19 -7z"/>
<path d="M8275 281 c-3 -5 -2 -12 3 -15 5 -3 9 1 9 9 0 17 -3 19 -12 6z"/>
<path d="M8305 279 c-3 -4 2 -6 10 -5 21 3 28 13 10 13 -9 0 -18 -4 -20 -8z"/>
<path d="M8636 278 c3 -5 10 -6 15 -3 13 9 11 12 -6 12 -8 0 -12 -4 -9 -9z"/>
<path d="M8670 281 c0 -6 4 -13 10 -16 6 -3 7 1 4 9 -7 18 -14 21 -14 7z"/>
<path d="M8716 282 c-3 -5 1 -9 9 -9 8 0 12 4 9 9 -3 4 -7 8 -9 8 -2 0 -6 -4
-9 -8z"/>
<path d="M8875 281 c-3 -5 -2 -12 3 -15 5 -3 9 1 9 9 0 17 -3 19 -12 6z"/>
<path d="M9087 279 c7 -7 15 -10 18 -7 3 3 -2 9 -12 12 -14 6 -15 5 -6 -5z"/>
<path d="M9260 279 c-13 -9 -13 -10 0 -6 8 2 21 -3 28 -12 11 -14 11 -13 2 7
-12 25 -11 25 -30 11z"/>
<path d="M9686 277 c3 -10 9 -15 12 -12 3 3 0 11 -7 18 -10 9 -11 8 -5 -6z"/>
<path d="M9793 275 c0 -8 4 -12 9 -9 4 3 8 9 8 15 0 5 -4 9 -8 9 -5 0 -9 -7
-9 -15z"/>
<path d="M9215 270 c-3 -6 1 -7 9 -4 18 7 21 14 7 14 -6 0 -13 -4 -16 -10z"/>
<path d="M4596 258 c3 -4 11 -5 19 -1 21 7 19 12 -4 10 -11 0 -18 -5 -15 -9z"/>
<path d="M9000 260 c-9 -6 -10 -10 -3 -10 6 0 15 5 18 10 8 12 4 12 -15 0z"/>
<path d="M9160 260 c-9 -6 -10 -10 -3 -10 6 0 15 5 18 10 8 12 4 12 -15 0z"/>
<path d="M9433 255 c0 -8 4 -12 9 -9 4 3 8 9 8 15 0 5 -4 9 -8 9 -5 0 -9 -7
-9 -15z"/>
<path d="M9628 263 c7 -3 16 -2 19 1 4 3 -2 6 -13 5 -11 0 -14 -3 -6 -6z"/>
<path d="M8836 247 c3 -10 9 -15 12 -12 3 3 0 11 -7 18 -10 9 -11 8 -5 -6z"/>
<path d="M9655 249 c-4 -6 -5 -12 -2 -15 2 -3 7 2 10 11 7 17 1 20 -8 4z"/>
<path d="M6695 240 c-3 -5 -1 -10 4 -10 6 0 11 5 11 10 0 6 -2 10 -4 10 -3 0
-8 -4 -11 -10z"/>
<path d="M6730 240 c0 -5 5 -10 11 -10 5 0 7 5 4 10 -3 6 -8 10 -11 10 -2 0
-4 -4 -4 -10z"/>
<path d="M7175 240 c-3 -5 -1 -10 4 -10 6 0 11 5 11 10 0 6 -2 10 -4 10 -3 0
-8 -4 -11 -10z"/>
<path d="M7535 240 c-3 -5 -1 -10 4 -10 6 0 11 5 11 10 0 6 -2 10 -4 10 -3 0
-8 -4 -11 -10z"/>
<path d="M8873 235 c0 -8 4 -12 9 -9 5 3 6 10 3 15 -9 13 -12 11 -12 -6z"/>
<path d="M9455 239 c-3 -4 2 -6 10 -5 21 3 28 13 10 13 -9 0 -18 -4 -20 -8z"/>
<path d="M9575 240 c3 -5 8 -10 11 -10 2 0 4 5 4 10 0 6 -5 10 -11 10 -5 0 -7
-4 -4 -10z"/>
<path d="M9613 231 c0 -11 5 -18 9 -15 4 3 5 11 1 19 -7 21 -12 19 -10 -4z"/>
<path d="M5535 231 c-3 -5 -2 -12 3 -15 5 -3 9 1 9 9 0 17 -3 19 -12 6z"/>
<path d="M9015 231 c-3 -5 -2 -12 3 -15 5 -3 9 1 9 9 0 17 -3 19 -12 6z"/>
<path d="M4935 219 c-3 -4 2 -6 10 -5 21 3 28 13 10 13 -9 0 -18 -4 -20 -8z"/>
<path d="M5075 220 c3 -5 8 -10 11 -10 2 0 4 5 4 10 0 6 -5 10 -11 10 -5 0 -7
-4 -4 -10z"/>
<path d="M5134 222 c4 -3 14 -7 22 -8 9 -1 13 0 10 4 -4 3 -14 7 -22 8 -9 1
-13 0 -10 -4z"/>
<path d="M5216 221 c-3 -5 2 -15 12 -22 15 -12 16 -12 5 2 -7 9 -10 19 -6 22
3 4 4 7 0 7 -3 0 -8 -4 -11 -9z"/>
<path d="M5336 218 c3 -5 10 -6 15 -3 13 9 11 12 -6 12 -8 0 -12 -4 -9 -9z"/>
<path d="M5453 215 c0 -8 4 -12 9 -9 5 3 6 10 3 15 -9 13 -12 11 -12 -6z"/>
<path d="M5975 221 c-3 -5 -2 -12 3 -15 5 -3 9 1 9 9 0 17 -3 19 -12 6z"/>
<path d="M6510 220 c0 -5 5 -10 11 -10 5 0 7 5 4 10 -3 6 -8 10 -11 10 -2 0
-4 -4 -4 -10z"/>
<path d="M6915 220 c-3 -5 -1 -10 4 -10 6 0 11 5 11 10 0 6 -2 10 -4 10 -3 0
-8 -4 -11 -10z"/>
<path d="M7310 220 c0 -5 5 -10 11 -10 5 0 7 5 4 10 -3 6 -8 10 -11 10 -2 0
-4 -4 -4 -10z"/>
<path d="M7895 221 c-3 -5 -2 -12 3 -15 5 -3 9 1 9 9 0 17 -3 19 -12 6z"/>
<path d="M8375 221 c-3 -5 -2 -12 3 -15 5 -3 9 1 9 9 0 17 -3 19 -12 6z"/>
<path d="M8615 221 c-3 -5 -2 -12 3 -15 5 -3 9 1 9 9 0 17 -3 19 -12 6z"/>
<path d="M8726 218 c3 -5 10 -6 15 -3 13 9 11 12 -6 12 -8 0 -12 -4 -9 -9z"/>
<path d="M8816 222 c-2 -4 -1 -14 4 -22 7 -11 9 -9 7 8 -1 24 -3 26 -11 14z"/>
<path d="M9175 220 c3 -5 8 -10 11 -10 2 0 4 5 4 10 0 6 -5 10 -11 10 -5 0 -7
-4 -4 -10z"/>
<path d="M9210 219 c0 -5 5 -7 10 -4 6 3 10 8 10 11 0 2 -4 4 -10 4 -5 0 -10
-5 -10 -11z"/>
<path d="M9375 220 c3 -5 8 -10 11 -10 2 0 4 5 4 10 0 6 -5 10 -11 10 -5 0 -7
-4 -4 -10z"/>
<path d="M4626 198 c3 -5 10 -6 15 -3 13 9 11 12 -6 12 -8 0 -12 -4 -9 -9z"/>
<path d="M6400 200 c-9 -6 -10 -10 -3 -10 6 0 15 5 18 10 8 12 4 12 -15 0z"/>
</g>
</svg>
