<svg width="140" height="140" viewBox="0 0 140 140" fill="none" xmlns="http://www.w3.org/2000/svg">
<path d="M122.5 140H82.4999C81.1199 140 79.9999 138.88 79.9999 137.5V97.5C79.9999 96.12 81.1199 95 82.4999 95H122.5C123.88 95 125 96.12 125 97.5V137.5C125 138.88 123.88 140 122.5 140ZM84.9999 135H120V100H84.9999V135Z" fill="#AEB5C8"/>
<path d="M42.5 140H2.5C1.12 140 0 138.88 0 137.5V97.4998C0 96.1198 1.12 94.9998 2.5 94.9998H42.5C43.88 94.9998 45 96.1198 45 97.4998V137.5C45 138.88 43.88 140 42.5 140ZM5 135H40V99.9998H5V135Z" fill="#AEB5C8"/>
<path d="M122.5 60H82.4999C81.1199 60 79.9999 58.88 79.9999 57.5V17.5C79.9999 16.835 80.2649 16.2 80.7299 15.73L95.7299 0.73C96.1999 0.265 96.8349 0 97.4999 0H137.5C138.88 0 140 1.12 140 2.5V42.5C140 43.165 139.735 43.8 139.27 44.27L124.27 59.27C123.8 59.735 123.165 60 122.5 60ZM84.9999 55H121.465L135 41.465V5H98.5349L84.9999 18.535V55Z" fill="#AEB5C8"/>
<path d="M122.5 60.0002H82.4999C81.1199 60.0002 79.9999 58.8802 79.9999 57.5002V17.5002C79.9999 16.1202 81.1199 15.0002 82.4999 15.0002H122.5C123.88 15.0002 125 16.1202 125 17.5002V57.5002C125 58.8802 123.88 60.0002 122.5 60.0002ZM84.9999 55.0002H120V20.0002H84.9999V55.0002Z" fill="#AEB5C8"/>
<path d="M42.5 60.0002H2.5C1.12 60.0002 0 58.8802 0 57.5002V17.5002C0 16.1202 1.12 15.0002 2.5 15.0002H42.5C43.88 15.0002 45 16.1202 45 17.5002V57.5002C45 58.8802 43.88 60.0002 42.5 60.0002ZM5 55.0002H40V20.0002H5V55.0002Z" fill="#AEB5C8"/>
<path d="M122.5 100C121.86 100 121.22 99.7552 120.73 99.2702C119.755 98.2952 119.755 96.7102 120.73 95.7352L133.23 83.2352C134.205 82.2602 135.79 82.2602 136.765 83.2352C137.74 84.2102 137.74 85.7952 136.765 86.7702L124.265 99.2702C123.78 99.7552 123.14 100 122.5 100Z" fill="#AEB5C8"/>
<path d="M42.5 100C41.86 100 41.22 99.7552 40.73 99.2702C39.755 98.2952 39.755 96.7102 40.73 95.7352L53.23 83.2352C54.205 82.2602 55.79 82.2602 56.765 83.2352C57.74 84.2102 57.74 85.7952 56.765 86.7702L44.265 99.2702C43.78 99.7552 43.14 100 42.5 100Z" fill="#AEB5C8"/>
<path d="M122.5 20.0002C121.86 20.0002 121.22 19.7552 120.73 19.2702C119.755 18.2952 119.755 16.7102 120.73 15.7352L133.23 3.23516C134.205 2.26016 135.79 2.26016 136.765 3.23516C137.74 4.21016 137.74 5.79516 136.765 6.77016L124.265 19.2702C123.78 19.7552 123.14 20.0002 122.5 20.0002Z" fill="#AEB5C8"/>
<path d="M42.5 20.0002C41.86 20.0002 41.22 19.7552 40.73 19.2702C39.755 18.2952 39.755 16.7102 40.73 15.7352L53.23 3.23516C54.205 2.26016 55.79 2.26016 56.765 3.23516C57.74 4.21016 57.74 5.79516 56.765 6.77016L44.265 19.2702C43.78 19.7552 43.14 20.0002 42.5 20.0002Z" fill="#AEB5C8"/>
<path d="M80 115H52.5C51.12 115 50 113.88 50 112.5C50 111.12 51.12 110 52.5 110H80C81.38 110 82.5 111.12 82.5 112.5C82.5 113.88 81.38 115 80 115Z" fill="#00AC7A"/>
<path d="M80 35H52.5C51.12 35 50 33.88 50 32.5C50 31.12 51.12 30 52.5 30H80C81.38 30 82.5 31.12 82.5 32.5C82.5 33.88 81.38 35 80 35Z" fill="#00AC7A"/>
<path d="M82.4999 140C81.1199 140 79.9999 138.88 79.9999 137.5V97.5003C79.9999 96.8353 80.2649 96.2003 80.7299 95.7303L95.7299 80.7303C96.7049 79.7553 98.2899 79.7553 99.2649 80.7303C100.24 81.7053 100.24 83.2903 99.2649 84.2653L84.9999 98.5353V135H121.465L135 121.465V85.0003H117.5C116.12 85.0003 115 83.8803 115 82.5003C115 81.1203 116.12 80.0003 117.5 80.0003H137.5C138.88 80.0003 140 81.1203 140 82.5003V122.5C140 123.165 139.735 123.8 139.27 124.27L124.27 139.27C123.8 139.735 123.165 140 122.5 140H82.4999Z" fill="#AEB5C8"/>
<path d="M107.5 90C106.12 90 105 88.88 105 87.5V60C105 58.62 106.12 57.5 107.5 57.5C108.88 57.5 110 58.62 110 60V87.5C110 88.88 108.88 90 107.5 90Z" fill="#00AC7A"/>
<path d="M27.5001 90C26.1201 90 25.0001 88.88 25.0001 87.5V60C25.0001 58.62 26.1201 57.5 27.5001 57.5C28.8801 57.5 30.0001 58.62 30.0001 60V87.5C30.0001 88.88 28.8801 90 27.5001 90Z" fill="#00AC7A"/>
<path d="M2.5 60C1.12 60 0 58.88 0 57.5V17.5C0 16.835 0.265 16.2 0.729999 15.73L15.73 0.73C16.2 0.265 16.835 0 17.5 0H57.5C58.88 0 60 1.12 60 2.5V22.5C60 23.88 58.88 25 57.5 25C56.12 25 55 23.88 55 22.5V5H18.535L5 18.535V55H41.465L55.735 40.73C56.71 39.755 58.295 39.755 59.27 40.73C60.245 41.705 60.245 43.29 59.27 44.265L44.27 59.265C43.8 59.735 43.165 60 42.5 60H2.5Z" fill="#AEB5C8"/>
<path d="M42.5 140H2.5C1.12 140 0 138.88 0 137.5V97.5C0 96.835 0.265 96.2 0.729999 95.73L15.73 80.73C16.705 79.755 18.29 79.755 19.265 80.73C20.24 81.705 20.24 83.29 19.265 84.265L5 98.535V135H41.465L55.735 120.73C56.71 119.755 58.295 119.755 59.27 120.73C60.245 121.705 60.245 123.29 59.27 124.265L44.27 139.265C43.8 139.735 43.165 140 42.5 140Z" fill="#AEB5C8"/>
<path d="M55 102.5V85H37.5C36.12 85 35 83.88 35 82.5C35 81.12 36.12 80 37.5 80H57.5C58.88 80 60 81.12 60 82.5V102.5C60 103.88 58.88 105 57.5 105C56.12 105 55 103.88 55 102.5Z" fill="#AEB5C8"/>
</svg>
