<svg width="42" height="43" viewBox="0 0 42 43" fill="none" xmlns="http://www.w3.org/2000/svg">
<ellipse cx="21.3096" cy="22.0142" rx="20.1666" ry="20.9258" fill="#00AC7A"/>
<path d="M23.5871 16.8039C22.4016 16.601 21.4487 16.662 20.7283 16.9869C20.0095 17.2981 19.6064 17.8174 19.519 18.5448C19.458 19.0527 19.6018 19.4765 19.9504 19.8163C20.2989 20.1561 20.8275 20.3867 21.536 20.508L25.3172 21.1553L24.6004 23.3018L20.4718 22.595C19.4635 22.4224 18.6365 22.477 17.9908 22.7586C17.3587 23.0426 17.0015 23.5278 16.9191 24.2141C16.7625 25.518 17.8423 26.3682 20.1587 26.7647C21.1262 26.9303 22.0539 26.9631 22.942 26.863C23.8437 26.7652 24.6055 26.5594 25.2272 26.2456L25.7566 28.4374C24.9904 28.7965 24.0525 29.0211 22.9431 29.1114C21.8473 29.2039 20.7204 29.1511 19.5622 28.9528C17.7636 28.6449 16.3809 28.058 15.4141 27.1922C14.4474 26.3263 14.0365 25.2894 14.1816 24.0816C14.292 23.162 14.6678 22.4069 15.3089 21.8163C15.9653 21.2142 16.7945 20.8519 17.7965 20.7293C17.4311 20.4146 17.164 20.0327 16.9955 19.5836C16.8269 19.1345 16.774 18.6492 16.8366 18.1277C16.9487 17.1943 17.3193 16.4243 17.9484 15.8176C18.5928 15.1995 19.4354 14.7835 20.4763 14.5695C21.5308 14.3578 22.7188 14.365 24.0405 14.5913C25.0216 14.7592 25.9162 15.0104 26.7243 15.3449C27.534 15.6656 28.2172 16.0557 28.7739 16.5152L27.6224 18.4612C26.5673 17.6362 25.2222 17.0838 23.5871 16.8039Z" fill="white"/>
</svg>
