<svg width="150" height="150" viewBox="0 0 150 150" fill="none" xmlns="http://www.w3.org/2000/svg">
<path d="M127.734 127.734H45.7031C39.2578 127.734 33.9844 122.461 33.9844 116.016V33.9844C33.9844 27.5391 39.2578 22.2656 45.7031 22.2656H127.734C134.18 22.2656 139.453 27.5391 139.453 33.9844V116.016C139.453 122.461 134.18 127.734 127.734 127.734Z" fill="#6E6E8E"/>
<path d="M104.297 127.734H22.2656C15.8203 127.734 10.5469 122.461 10.5469 116.016V33.9844C10.5469 27.5391 15.8203 22.2656 22.2656 22.2656H104.297C110.742 22.2656 116.016 27.5391 116.016 33.9844V116.016C116.016 122.461 110.742 127.734 104.297 127.734Z" fill="#D4D3DD"/>
<path d="M22.2656 113.672V36.3281C22.2656 35.0391 23.3203 33.9844 24.6094 33.9844H101.953C103.242 33.9844 104.297 35.0391 104.297 36.3281V113.672C104.297 114.961 103.242 116.016 101.953 116.016H24.6094C23.3203 116.016 22.2656 114.961 22.2656 113.672Z" fill="#F2F2F4"/>
<path d="M104.297 22.2656H127.734C134.18 22.2656 139.453 27.5391 139.453 33.9844" stroke="#444B54" stroke-width="6" stroke-miterlimit="10" stroke-linecap="round" stroke-linejoin="round"/>
<path d="M139.453 33.9844V116.016C139.453 122.461 134.18 127.734 127.734 127.734V133.594" stroke="#444B54" stroke-width="6" stroke-miterlimit="10" stroke-linecap="round" stroke-linejoin="round"/>
<path d="M104.297 127.734V133.594" stroke="#444B54" stroke-width="6" stroke-miterlimit="10" stroke-linecap="round" stroke-linejoin="round"/>
<path d="M22.2656 127.734V133.594" stroke="#444B54" stroke-width="6" stroke-miterlimit="10" stroke-linecap="round" stroke-linejoin="round"/>
<path d="M92.5781 53.9062C97.1086 53.9062 100.781 50.2336 100.781 45.7031C100.781 41.1727 97.1086 37.5 92.5781 37.5C88.0477 37.5 84.375 41.1727 84.375 45.7031C84.375 50.2336 88.0477 53.9062 92.5781 53.9062Z" fill="#8888AA"/>
<path d="M92.5781 49.2188C94.5198 49.2188 96.0938 47.6448 96.0938 45.7031C96.0938 43.7615 94.5198 42.1875 92.5781 42.1875C90.6365 42.1875 89.0625 43.7615 89.0625 45.7031C89.0625 47.6448 90.6365 49.2188 92.5781 49.2188Z" fill="#444B54"/>
<path d="M121.875 45.7031H116.016V33.9844C116.016 27.5391 110.742 22.2656 104.297 22.2656H22.2656C15.8203 22.2656 10.5469 27.5391 10.5469 33.9844V116.016C10.5469 122.461 15.8203 127.734 22.2656 127.734H104.297C110.742 127.734 116.016 122.461 116.016 116.016V104.297H121.875" stroke="#444B54" stroke-width="6" stroke-miterlimit="10" stroke-linecap="round" stroke-linejoin="round"/>
<path d="M116.016 58.5938V91.4062" stroke="#444B54" stroke-width="6" stroke-miterlimit="10" stroke-linecap="round" stroke-linejoin="round"/>
<path d="M71.5666 83.2863C76.143 78.7099 76.143 71.2901 71.5666 66.7137C66.9902 62.1373 59.5704 62.1373 54.994 66.7137C50.4176 71.2901 50.4176 78.7099 54.994 83.2863C59.5704 87.8627 66.9902 87.8627 71.5666 83.2863Z" fill="#00AC7A"/>
<path d="M71.5666 83.2863C76.143 78.7099 76.143 71.2901 71.5666 66.7137C66.9902 62.1373 59.5704 62.1373 54.994 66.7137C50.4176 71.2901 50.4176 78.7099 54.994 83.2863C59.5704 87.8627 66.9902 87.8627 71.5666 83.2863Z" fill="#00AC7A" stroke="#444B54" stroke-width="6" stroke-miterlimit="10" stroke-linecap="round" stroke-linejoin="round"/>
<path d="M54.9609 66.6797L46.7578 58.4766" stroke="#444B54" stroke-width="6" stroke-miterlimit="10" stroke-linecap="round" stroke-linejoin="round"/>
<path d="M71.6016 66.6797L79.8047 58.4766" stroke="#444B54" stroke-width="6" stroke-miterlimit="10" stroke-linecap="round" stroke-linejoin="round"/>
<path d="M71.6016 83.3203L79.8047 91.5234" stroke="#444B54" stroke-width="6" stroke-miterlimit="10" stroke-linecap="round" stroke-linejoin="round"/>
<path d="M54.9609 83.3203L46.7578 91.5234" stroke="#444B54" stroke-width="6" stroke-miterlimit="10" stroke-linecap="round" stroke-linejoin="round"/>
</svg>
