<svg width="200" height="200" viewBox="0 0 200 200" fill="none" xmlns="http://www.w3.org/2000/svg">
<path d="M183.333 121.549C183.327 116.749 181.666 112.097 178.63 108.379C175.594 104.661 171.369 102.103 166.667 101.137V88.2157C166.661 82.6921 164.464 77.3964 160.558 73.4907C156.653 69.5849 151.357 67.3881 145.833 67.3824H139.225L102.23 30.3874C98.3203 26.4867 93.0229 24.2961 87.5001 24.2961C81.9772 24.2961 76.6799 26.4867 72.7701 30.3874L35.5834 67.5774C30.4262 68.0432 25.6285 70.4171 22.1297 74.2344C18.6308 78.0518 16.6827 83.0375 16.6667 88.2157V154.882C16.6725 160.406 18.8693 165.702 22.775 169.607C26.6808 173.513 31.9765 175.71 37.5001 175.716H145.833C151.357 175.71 156.653 173.513 160.558 169.607C164.464 165.702 166.661 160.406 166.667 154.882V141.961C171.369 140.995 175.594 138.437 178.63 134.719C181.666 131.001 183.327 126.349 183.333 121.549ZM78.6667 36.2791C81.0121 33.9381 84.1905 32.6234 87.5043 32.6234C90.818 32.6234 93.9964 33.9381 96.3418 36.2791L127.442 67.3824H47.5584L78.6667 36.2791ZM145.833 167.382H37.5001C34.186 167.379 31.0086 166.061 28.6651 163.717C26.3217 161.374 25.0036 158.197 25.0001 154.882V88.2157C25.0038 84.9017 26.322 81.7244 28.6654 79.381C31.0088 77.0376 34.186 75.7195 37.5001 75.7157H145.833C149.147 75.7195 152.325 77.0376 154.668 79.381C157.012 81.7244 158.33 84.9017 158.333 88.2157V100.716H145.833C140.308 100.716 135.009 102.911 131.102 106.818C127.195 110.725 125 116.024 125 121.549C125 127.074 127.195 132.373 131.102 136.28C135.009 140.187 140.308 142.382 145.833 142.382H158.333V154.882C158.33 158.197 157.012 161.374 154.668 163.717C152.325 166.061 149.148 167.379 145.833 167.382ZM162.5 134.049H145.833C142.518 134.049 139.339 132.732 136.995 130.388C134.65 128.044 133.333 124.864 133.333 121.549C133.333 118.234 134.65 115.054 136.995 112.71C139.339 110.366 142.518 109.049 145.833 109.049H162.5C165.815 109.049 168.995 110.366 171.339 112.71C173.683 115.054 175 118.234 175 121.549C175 124.864 173.683 128.044 171.339 130.388C168.995 132.732 165.815 134.049 162.5 134.049Z" fill="#AEB5C8"/>
</svg>
